<svg width="88" height="16" viewBox="0 0 88 16" fill="none" xmlns="http://www.w3.org/2000/svg">
<path d="M9.90341 0.363636V12H7.47159V2.36364H2.76705V12H0.335227V0.363636H9.90341ZM16.1776 12.1705C15.2836 12.1705 14.5128 11.9886 13.8651 11.625C13.2173 11.2576 12.7192 10.7386 12.3707 10.0682C12.0223 9.39394 11.848 8.59659 11.848 7.67614C11.848 6.77841 12.0223 5.99053 12.3707 5.3125C12.7192 4.63447 13.2098 4.10606 13.8423 3.72727C14.4787 3.34848 15.2249 3.15909 16.081 3.15909C16.8499 3.15909 17.5431 3.32197 18.1605 3.64773C18.7817 3.97348 19.2741 4.46591 19.6378 5.125C20.0014 5.7803 20.1832 6.60227 20.1832 7.59091V8.25568H14.2401V8.26136C14.2401 8.91288 14.4181 9.42614 14.7741 9.80114C15.1302 10.1761 15.6113 10.3636 16.2173 10.3636C16.6226 10.3636 16.973 10.2784 17.2685 10.108C17.5639 9.9375 17.7723 9.68561 17.8935 9.35227L20.1321 9.5C19.9616 10.3106 19.5298 10.9583 18.8366 11.4432C18.1435 11.928 17.2571 12.1705 16.1776 12.1705ZM14.2401 6.75568H17.9048C17.901 6.23674 17.7344 5.80871 17.4048 5.47159C17.0753 5.13447 16.6473 4.96591 16.1207 4.96591C15.5829 4.96591 15.1416 5.14015 14.7969 5.48864C14.4522 5.83712 14.2666 6.25947 14.2401 6.75568ZM21.7628 15.2727V3.27273H24.1491V4.73864H24.2571C24.367 4.5 24.5223 4.25947 24.723 4.01705C24.9238 3.77462 25.1889 3.57197 25.5185 3.40909C25.848 3.24242 26.2552 3.15909 26.7401 3.15909C27.3802 3.15909 27.9673 3.32576 28.5014 3.65909C29.0355 3.98864 29.4635 4.48674 29.7855 5.15341C30.1113 5.81629 30.2741 6.64773 30.2741 7.64773C30.2741 8.62121 30.117 9.44318 29.8026 10.1136C29.4882 10.7803 29.0639 11.286 28.5298 11.6307C27.9957 11.9716 27.3973 12.142 26.7344 12.142C26.2647 12.142 25.8651 12.0644 25.5355 11.9091C25.2098 11.7538 24.9427 11.5587 24.7344 11.3239C24.5298 11.0852 24.3707 10.8447 24.2571 10.6023H24.1832V15.2727H21.7628ZM24.1321 7.63636C24.1321 8.41288 24.2912 9.03788 24.6094 9.51136C24.9313 9.98106 25.384 10.2159 25.9673 10.2159C26.562 10.2159 27.0166 9.97727 27.331 9.5C27.6454 9.01894 27.8026 8.39773 27.8026 7.63636C27.8026 6.87879 27.6454 6.26515 27.331 5.79545C27.0204 5.32197 26.5658 5.08523 25.9673 5.08523C25.3802 5.08523 24.9276 5.31629 24.6094 5.77841C24.2912 6.23674 24.1321 6.85606 24.1321 7.63636ZM35.8651 12.1705C34.9711 12.1705 34.2003 11.9886 33.5526 11.625C32.9048 11.2576 32.4067 10.7386 32.0582 10.0682C31.7098 9.39394 31.5355 8.59659 31.5355 7.67614C31.5355 6.77841 31.7098 5.99053 32.0582 5.3125C32.4067 4.63447 32.8973 4.10606 33.5298 3.72727C34.1662 3.34848 34.9124 3.15909 35.7685 3.15909C36.5374 3.15909 37.2306 3.32197 37.848 3.64773C38.4692 3.97348 38.9616 4.46591 39.3253 5.125C39.6889 5.7803 39.8707 6.60227 39.8707 7.59091V8.25568H33.9276V8.26136C33.9276 8.91288 34.1056 9.42614 34.4616 9.80114C34.8177 10.1761 35.2988 10.3636 35.9048 10.3636C36.3101 10.3636 36.6605 10.2784 36.956 10.108C37.2514 9.9375 37.4598 9.68561 37.581 9.35227L39.8196 9.5C39.6491 10.3106 39.2173 10.9583 38.5241 11.4432C37.831 11.928 36.9446 12.1705 35.8651 12.1705ZM33.9276 6.75568H37.5923C37.5885 6.23674 37.4219 5.80871 37.0923 5.47159C36.7628 5.13447 36.3348 4.96591 35.8082 4.96591C35.2704 4.96591 34.8291 5.14015 34.4844 5.48864C34.1397 5.83712 33.9541 6.25947 33.9276 6.75568ZM43.3324 3.27273L44.9347 6.32386L46.5767 3.27273H49.0597L46.5312 7.63636L49.1278 12H46.6562L44.9347 8.98295L43.2415 12H40.7415L43.3324 7.63636L40.8324 3.27273H43.3324ZM54.1122 12.1705C53.2296 12.1705 52.4664 11.983 51.8224 11.608C51.1823 11.2292 50.688 10.7027 50.3395 10.0284C49.991 9.35038 49.8168 8.56439 49.8168 7.67045C49.8168 6.76894 49.991 5.98106 50.3395 5.30682C50.688 4.62879 51.1823 4.10227 51.8224 3.72727C52.4664 3.34848 53.2296 3.15909 54.1122 3.15909C54.9948 3.15909 55.7562 3.34848 56.3963 3.72727C57.0402 4.10227 57.5365 4.62879 57.8849 5.30682C58.2334 5.98106 58.4077 6.76894 58.4077 7.67045C58.4077 8.56439 58.2334 9.35038 57.8849 10.0284C57.5365 10.7027 57.0402 11.2292 56.3963 11.608C55.7562 11.983 54.9948 12.1705 54.1122 12.1705ZM54.1236 10.2955C54.7221 10.2955 55.1747 10.0455 55.4815 9.54545C55.7921 9.04545 55.9474 8.41477 55.9474 7.65341C55.9474 6.89205 55.7921 6.26136 55.4815 5.76136C55.1747 5.25758 54.7221 5.00568 54.1236 5.00568C53.5137 5.00568 53.0535 5.25758 52.7429 5.76136C52.4323 6.26136 52.277 6.89205 52.277 7.65341C52.277 8.41477 52.4323 9.04545 52.7429 9.54545C53.0535 10.0455 53.5137 10.2955 54.1236 10.2955ZM59.2997 14.5568V10.0795H59.9702C60.224 9.91667 60.419 9.63258 60.5554 9.22727C60.6918 8.81818 60.794 8.3428 60.8622 7.80114C60.9304 7.25568 60.9872 6.69697 61.0327 6.125L61.2599 3.27273H67.9531V10.0795H69.3054V14.5568H66.9986V12H61.6634V14.5568H59.2997ZM62.3793 10.0795H65.669V5.13636H63.3168L63.2259 6.125C63.1615 7.05682 63.0687 7.84848 62.9474 8.5C62.8262 9.14773 62.6368 9.67424 62.3793  12.2159Z" fill="white"/>
</svg>
