<svg width="484" height="35" viewBox="0 0 484 35" fill="none" xmlns="http://www.w3.org/2000/svg">
<path d="M7.43182 0.363636V1.61364H1.81818V12H0.409091V0.363636H7.43182ZM10.8111 12.2045C10.258 12.2045 9.75616 12.1004 9.3054 11.892C8.85464 11.6799 8.49669 11.375 8.23153 10.9773C7.96638 10.5758 7.83381 10.0909 7.83381 9.52273C7.83381 9.02273 7.93229 8.61742 8.12926 8.30682C8.32623 7.99242 8.58949 7.74621 8.91903 7.56818C9.24858 7.39015 9.61222 7.25758 10.0099 7.17045C10.4115 7.07955 10.8149 7.00758 11.2202 6.95455C11.7505 6.88636 12.1804 6.83523 12.5099 6.80114C12.8433 6.76326 13.0857 6.70076 13.2372 6.61364C13.3925 6.52652 13.4702 6.375 13.4702 6.15909V6.11364C13.4702 5.55303 13.3168 5.11742 13.0099 4.80682C12.7069 4.49621 12.2467 4.34091 11.6293 4.34091C10.9891 4.34091 10.4872 4.48106 10.1236 4.76136C9.75994 5.04167 9.50426 5.34091 9.35653 5.65909L8.08381 5.20455C8.31108 4.67424 8.61411 4.26136 8.9929 3.96591C9.37547 3.66667 9.79214 3.45833 10.2429 3.34091C10.6974 3.2197 11.1444 3.15909 11.5838 3.15909C11.8641 3.15909 12.1861 3.19318 12.5497 3.26136C12.9171 3.32576 13.2713 3.46023 13.6122 3.66477C13.9569 3.86932 14.2429 4.17803 14.4702 4.59091C14.6974 5.00379 14.8111 5.55682 14.8111 6.25V12H13.4702V10.8182H13.402C13.3111 11.0076 13.1596 11.2102 12.9474 11.4261C12.7353 11.642 12.4531 11.8258 12.1009 11.9773C11.7486 12.1288 11.3187 12.2045 10.8111 12.2045ZM11.0156 11C11.5459 11 11.9929 10.8958 12.3565 10.6875C12.724 10.4792 13.0005 10.2102 13.1861 9.88068C13.3755 9.55114 13.4702 9.20455 13.4702 8.84091V7.61364C13.4134 7.68182 13.2884 7.74432 13.0952 7.80114C12.9058 7.85417 12.6861 7.90151 12.4361 7.94318C12.1899 7.98106 11.9493 8.01515 11.7145 8.04545C11.4834 8.07197 11.2959 8.0947 11.152 8.11364C10.8035 8.15909 10.4777 8.23295 10.1747 8.33523C9.87547 8.43371 9.63305 8.58333 9.44744 8.78409C9.26563 8.98106 9.17472 9.25 9.17472 9.59091C9.17472 10.0568 9.34706 10.4091 9.69176 10.6477C10.0402 10.8826 10.4815 11 11.0156 11ZM17.2585 15.2727V3.27273H18.554V4.65909H18.7131C18.8116 4.50758 18.9479 4.31439 19.1222 4.07955C19.3002 3.84091 19.554 3.62879 19.8835 3.44318C20.2169 3.25379 20.6676 3.15909 21.2358 3.15909C21.9706 3.15909 22.6184 3.3428 23.179 3.71023C23.7396 4.07765 24.1771 4.59848 24.4915 5.27273C24.8059 5.94697 24.9631 6.74242 24.9631 7.65909C24.9631 8.58333 24.8059 9.38447 24.4915 10.0625C24.1771 10.7367 23.7415 11.2595 23.1847 11.6307C22.6278 11.9981 21.9858 12.1818 21.2585 12.1818C20.6979 12.1818 20.2491 12.089 19.9119 11.9034C19.5748 11.714 19.3153 11.5 19.1335 11.2614C18.9517 11.0189 18.8116 10.8182 18.7131 10.6591H18.5994V15.2727H17.2585ZM18.5767 7.63636C18.5767 8.625 18.7907 9.42992 19.2188 10.0511C19.6506 10.6686 20.2699 10.9773 21.0767 10.9773C21.6373 10.9773 22.1051 10.8295 22.4801 10.5341C22.8589 10.2348 23.143 9.83333 23.3324 9.32955C23.5256 8.82197 23.6222 8.25758 23.6222 7.63636C23.6222 7.02273 23.5275 6.4697 23.3381 5.97727C23.1525 5.48106 22.8703 5.08902 22.4915 4.80114C22.1165 4.50947 21.6449 4.36364 21.0767 4.36364C20.2585 4.36364 19.6373 4.66477 19.2131 5.26705C18.7888 5.86932 18.5767 6.65909 18.5767 7.63636ZM29.5767 12.2045C29.0237 12.2045 28.5218 12.1004 28.071 11.892C27.6203 11.6799 27.2623 11.375 26.9972 10.9773C26.732 10.5758 26.5994 10.0909 26.5994 9.52273C26.5994 9.02273 26.6979 8.61742 26.8949 8.30682C27.0919 7.99242 27.3551 7.74621 27.6847 7.56818C28.0142 7.39015 28.3778 7.25758 28.7756 7.17045C29.1771 7.07955 29.5805 7.00758 29.9858 6.95455C30.5161 6.88636 30.946 6.83523 31.2756 6.80114C31.6089 6.76326 31.8513 6.70076 32.0028 6.61364C32.1581 6.52652 32.2358 6.375 32.2358 6.15909V6.11364C32.2358 5.55303 32.0824 5.11742 31.7756 4.80682C31.4725 4.49621 31.0123 4.34091 30.3949 4.34091C29.7547 4.34091 29.2528 4.48106 28.8892 4.76136C28.5256 5.04167 28.2699 5.34091 28.1222 5.65909L26.8494 5.20455C27.0767 4.67424 27.3797 4.26136 27.7585 3.96591C28.1411 3.66667 28.5578 3.45833 29.0085 3.34091C29.4631 3.2197 29.91 3.15909 30.3494 3.15909C30.6297 3.15909 30.9517 3.19318 31.3153 3.26136C31.6828 3.32576 32.0369 3.46023 32.3778 3.66477C32.7225 3.86932 33.0085 4.17803 33.2358 4.59091C33.4631 5.00379 33.5767 5.55682 33.5767 6.25V12H32.2358V10.8182H32.1676C32.0767 11.0076 31.9252 11.2102 31.7131 11.4261C31.5009 11.642 31.2188 11.8258 30.8665 11.9773C30.5142 12.1288 30.0843 12.2045 29.5767 12.2045ZM29.7812 11C30.3116 11 30.7585 10.8958 31.1222 10.6875C31.4896 10.4792 31.7661 10.2102 31.9517 9.88068C32.1411 9.55114 32.2358 9.20455 32.2358 8.84091V7.61364C32.179 7.68182 32.054 7.74432 31.8608 7.80114C31.6714 7.85417 31.4517 7.90151 31.2017 7.94318C30.9555 7.98106 30.715 8.01515 30.4801 8.04545C30.2491 8.07197 30.0616 8.0947 29.9176 8.11364C29.5691 8.15909 29.2434 8.23295 28.9403 8.33523C28.6411 8.43371 28.3987 8.58333 28.2131 8.78409C28.0313 8.98106 27.9403 9.25 27.9403 9.59091C27.9403 10.0568 28.1127 10.4091 28.4574 10.6477C28.8059 10.8826 29.2472 11 29.7812 11ZM37.3651 3.27273V7.02273H41.5469V3.27273H42.8878V12H41.5469V8.27273H37.3651V12H36.0241V3.27273H37.3651ZM44.1491 4.52273V3.27273H51.2401V4.52273H48.3764V12H47.0355V4.52273H44.1491ZM57.696 15.2727V3.27273H58.9915V4.65909H59.1506C59.2491 4.50758 59.3854 4.31439 59.5597 4.07955C59.7377 3.84091 59.9915 3.62879 60.321 3.44318C60.6544 3.25379 61.1051 3.15909 61.6733 3.15909C62.4081 3.15909 63.0559 3.3428 63.6165 3.71023C64.1771 4.07765 64.6146 4.59848 64.929 5.27273C65.2434 5.94697 65.4006 6.74242 65.4006 7.65909C65.4006 8.58333 65.2434 9.38447 64.929 10.0625C64.6146 10.7367 64.179 11.2595 63.6222 11.6307C63.0653 11.9981 62.4233 12.1818 61.696 12.1818C61.1354 12.1818 60.6866 12.089 60.3494 11.9034C60.0123 11.714 59.7528 11.5 59.571 11.2614C59.3892 11.0189 59.2491 10.8182 59.1506 10.6591H59.0369V15.2727H57.696ZM59.0142 7.63636C59.0142 8.625 59.2282 9.42992 59.6562 10.0511C60.0881 10.6686 60.7074 10.9773 61.5142 10.9773C62.0748 10.9773 62.5426 10.8295 62.9176 10.5341C63.2964 10.2348 63.5805 9.83333 63.7699 9.32955C63.9631 8.82197 64.0597 8.25758 64.0597 7.63636C64.0597 7.02273 63.965 6.4697 63.7756 5.97727C63.59 5.48106 63.3078 5.08902 62.929 4.80114C62.554 4.50947 62.0824 4.36364 61.5142 4.36364C60.696 4.36364 60.0748 4.66477 59.6506 5.26705C59.2263 5.86932 59.0142 6.65909 59.0142 7.63636ZM71.1051 12.1818C70.2642 12.1818 69.5388 11.9962 68.929 11.625C68.3229 11.25 67.8551 10.7273 67.5256 10.0568C67.1998 9.38258 67.0369 8.59848 67.0369 7.70455C67.0369 6.81061 67.1998 6.02273 67.5256 5.34091C67.8551 4.6553 68.3134 4.12121 68.9006 3.73864C69.4915 3.35227 70.1809 3.15909 70.9688 3.15909C71.4233 3.15909 71.8722 3.23485 72.3153 3.38636C72.7585 3.53788 73.1619 3.78409 73.5256 4.125C73.8892 4.46212 74.179 4.90909 74.3949 5.46591C74.6108 6.02273 74.7188 6.70833 74.7188 7.52273V8.09091H68.3835C68.4138 9.02273 68.6771 9.73674 69.1733 10.233C69.6733 10.7292 70.3172 10.9773 71.1051 10.9773C71.6316 10.9773 72.0843 10.8636 72.4631 10.6364C72.8419 10.4091 73.1165 10.0682 73.2869 9.61364L74.5824 9.97727C74.3778 10.6364 73.9688 11.1686 73.3551 11.5739C72.7415 11.9792 71.9915 12.1818 71.1051 12.1818ZM68.3835 6.93182H73.3551C73.3551 6.19318 73.1392 5.58144 72.7074 5.09659C72.2756 4.60795 71.696 4.36364 70.9688 4.36364C70.4574 4.36364 70.0142 4.48295 69.6392 4.72159C69.2642 4.96023 68.9688 5.27651 68.7528 5.67045C68.5369 6.06061 68.4138 6.48106 68.3835 6.93182ZM76.7585 12V3.27273H78.0994V7.06818H78.9858L82.1222 3.27273H83.8494L80.3267 7.47727L83.8949 12H82.1676L79.304 8.31818H78.0994V12H76.7585ZM85.3523 12V3.27273H88.9205C89.8598 3.27273 90.6061 3.48485 91.1591 3.90909C91.7121 4.33333 91.9886 4.89394 91.9886 5.59091C91.9886 6.12121 91.8314 6.5322 91.517 6.82386C91.2027 7.11174 90.7992 7.30682 90.3068 7.40909C90.6288 7.45455 90.9413 7.56818 91.2443 7.75C91.5511 7.93182 91.8049 8.18182 92.0057 8.5C92.2064 8.81439 92.3068 9.20076 92.3068 9.65909C92.3068 10.3295 92.0549 10.8883 91.5511 11.3352C91.0473 11.7784 90.3523 12 89.4659 12H85.3523ZM86.625 10.7727H89.4659C89.928 10.7727 90.2898 10.6629 90.5511 10.4432C90.8125 10.2235 90.9432 9.92424 90.9432 9.54545C90.9432 9.0947 90.8125 8.74053 90.5511 8.48295C90.2898 8.22159 89.928 8.09091 89.4659 8.09091H86.625V10.7727ZM86.625 6.93182H88.9205C89.4583 6.93182 89.8807 6.82197 90.1875 6.60227C90.4943 6.37879 90.6477 6.07197 90.6477 5.68182C90.6477 5.31439 90.4943 5.02651 90.1875 4.81818C89.8807 4.60606 89.4583 4.5 88.9205 4.5H86.625V6.93182ZM95.6776 10.0227L99.8821 3.27273H101.428V12H100.087V5.25L95.9048 12H94.3366V3.27273H95.6776V10.0227ZM103.338 9.77273H104.77C104.8 10.1667 104.978 10.4659 105.304 10.6705C105.634 10.875 106.062 10.9773 106.588 10.9773C107.126 10.9773 107.586 10.8674 107.969 10.6477C108.351 10.4242 108.543 10.0644 108.543 9.56818C108.543 9.13258 108.384 8.7822 108.065 8.51705C107.751 8.24811 107.327 8.11364 106.793 8.11364H105.293V6.90909H106.793C107.327 6.90909 107.721 6.78788 107.974 6.54545C108.232 6.30303 108.361 6 108.361 5.63636C108.361 5.24621 108.223 4.93371 107.946 4.69886C107.67 4.46023 107.277 4.34091 106.77 4.34091C106.259 4.34091 105.832 4.45644 105.491 4.6875C105.151 4.91477 104.971 5.20833 104.952 5.56818H103.543C103.558 5.09848 103.702 4.68371 103.974 4.32386C104.247 3.96023 104.618 3.67614 105.088 3.47159C105.558 3.26326 106.096 3.15909 106.702 3.15909C107.315 3.15909 107.848 3.26705 108.298 3.48295C108.753 3.69508 109.103 3.98485 109.349 4.35227C109.599 4.71591 109.724 5.12879 109.724 5.59091C109.724 6.08333 109.586 6.48106 109.31 6.78409C109.033 7.08712 108.687 7.30303 108.27 7.43182V7.52273C108.762 7.55682 109.158 7.77083 109.457 8.16477C109.757 8.55492 109.906 9.02273 109.906 9.56818C109.906 10.0985 109.764 10.5606 109.48 10.9545C109.196 11.3447 108.806 11.6477 108.31 11.8636C107.813 12.0758 107.247 12.1818 106.611 12.1818C105.993 12.1818 105.44 12.0814 104.952 11.8807C104.463 11.6761 104.075 11.3939 103.787 11.0341C103.503 10.6705 103.353 10.25 103.338 9.77273ZM113.131 10.0227L117.335 3.27273H118.881V12H117.54V5.25L113.358 12H111.79V3.27273H113.131V10.0227ZM121.337 15.2727V3.27273H122.632V4.65909H122.791C122.89 4.50758 123.026 4.31439 123.2 4.07955C123.378 3.84091 123.632 3.62879 123.962 3.44318C124.295 3.25379 124.746 3.15909 125.314 3.15909C126.049 3.15909 126.696 3.3428 127.257 3.71023C127.818 4.07765 128.255 4.59848 128.57 5.27273C128.884 5.94697 129.041 6.74242 129.041 7.65909C129.041 8.58333 128.884 9.38447 128.57 10.0625C128.255 10.7367 127.82 11.2595 127.263 11.6307C126.706 11.9981 126.064 12.1818 125.337 12.1818C124.776 12.1818 124.327 12.089 123.99 11.9034C123.653 11.714 123.393 11.5 123.212 11.2614C123.03 11.0189 122.89 10.8182 122.791 10.6591H122.678V15.2727H121.337ZM122.655 7.63636C122.655 8.625 122.869 9.42992 123.297 10.0511C123.729 10.6686 124.348 10.9773 125.155 10.9773C125.715 10.9773 126.183 10.8295 126.558 10.5341C126.937 10.2348 127.221 9.83333 127.411 9.32955C127.604 8.82197 127.7 8.25758 127.7 7.63636C127.7 7.02273 127.606 6.4697 127.416 5.97727C127.231 5.48106 126.948 5.08902 126.57 4.80114C126.195 4.50947 125.723 4.36364 125.155 4.36364C124.337 4.36364 123.715 4.66477 123.291 5.26705C122.867 5.86932 122.655 6.65909 122.655 7.63636ZM131.592 15.3864C131.365 15.3864 131.162 15.3674 130.984 15.3295C130.806 15.2955 130.683 15.2614 130.615 15.2273L130.956 14.0455C131.445 14.1705 131.852 14.1667 132.178 14.0341C132.507 13.9053 132.789 13.5152 133.024 12.8636L133.32 12.0455L130.092 3.27273H131.547L133.956 10.2273H134.047L136.456 3.27273H137.911L134.161 13.4091C133.668 14.7273 132.812 15.3864 131.592 15.3864ZM143.027 12.1818C142.186 12.1818 141.461 11.9962 140.851 11.625C140.245 11.25 139.777 10.7273 139.447 10.0568C139.122 9.38258 138.959 8.59848 138.959 7.70455C138.959 6.81061 139.122 6.02273 139.447 5.34091C139.777 4.6553 140.235 4.12121 140.822 3.73864C141.413 3.35227 142.103 3.15909 142.891 3.15909C143.345 3.15909 143.794 3.23485 144.237 3.38636C144.68 3.53788 145.084 3.78409 145.447 4.125C145.811 4.46212 146.101 4.90909 146.317 5.46591C146.533 6.02273 146.641 6.70833 146.641 7.52273V8.09091H140.305C140.336 9.02273 140.599 9.73674 141.095 10.233C141.595 10.7292 142.239 10.9773 143.027 10.9773C143.554 10.9773 144.006 10.8636 144.385 10.6364C144.764 10.4091 145.038 10.0682 145.209 9.61364L146.504 9.97727C146.3 10.6364 145.891 11.1686 145.277 11.5739C144.663 11.9792 143.913 12.1818 143.027 12.1818ZM140.305 6.93182H145.277C145.277 6.19318 145.061 5.58144 144.629 5.09659C144.197 4.60795 143.618 4.36364 142.891 4.36364C142.379 4.36364 141.936 4.48295 141.561 4.72159C141.186 4.96023 140.891 5.27651 140.675 5.67045C140.459 6.06061 140.336 6.48106 140.305 6.93182ZM147.868 4.52273V3.27273H154.959V4.52273H152.095V12H150.754V4.52273H147.868ZM161.415 12V3.27273H168.278V12H166.938V4.52273H162.756V12H161.415ZM170.727 15.2727V3.27273H172.023V4.65909H172.182C172.28 4.50758 172.417 4.31439 172.591 4.07955C172.769 3.84091 173.023 3.62879 173.352 3.44318C173.686 3.25379 174.136 3.15909 174.705 3.15909C175.439 3.15909 176.087 3.3428 176.648 3.71023C177.208 4.07765 177.646 4.59848 177.96 5.27273C178.275 5.94697 178.432 6.74242 178.432 7.65909C178.432 8.58333 178.275 9.38447 177.96 10.0625C177.646 10.7367 177.21 11.2595 176.653 11.6307C176.097 11.9981 175.455 12.1818 174.727 12.1818C174.167 12.1818 173.718 12.089 173.381 11.9034C173.044 11.714 172.784 11.5 172.602 11.2614C172.42 11.0189 172.28 10.8182 172.182 10.6591H172.068V15.2727H170.727ZM172.045 7.63636C172.045 8.625 172.259 9.42992 172.688 10.0511C173.119 10.6686 173.739 10.9773 174.545 10.9773C175.106 10.9773 175.574 10.8295 175.949 10.5341C176.328 10.2348 176.612 9.83333 176.801 9.32955C176.994 8.82197 177.091 8.25758 177.091 7.63636C177.091 7.02273 176.996 6.4697 176.807 5.97727C176.621 5.48106 176.339 5.08902 175.96 4.80114C175.585 4.50947 175.114 4.36364 174.545 4.36364C173.727 4.36364 173.106 4.66477 172.682 5.26705C172.258 5.86932 172.045 6.65909 172.045 7.63636ZM181.818 10.0227L186.023 3.27273H187.568V12H186.227V5.25L182.045 12H180.477V3.27273H181.818V10.0227ZM196.751 3.27273V12H195.411V8.95455C195.096 9.04924 194.768 9.12311 194.428 9.17614C194.087 9.22538 193.71 9.25 193.297 9.25C192.308 9.25 191.515 8.98295 190.916 8.44886C190.321 7.91477 190.024 7.11364 190.024 6.04545V3.25H191.365V6.04545C191.365 6.71591 191.551 7.21023 191.922 7.52841C192.293 7.8428 192.751 8 193.297 8C193.698 8 194.07 7.97348 194.411 7.92045C194.751 7.86742 195.085 7.79356 195.411 7.69886V3.27273H196.751ZM200.553 10.0227L204.757 3.27273H206.303V12H204.962V5.25L200.78 12H199.212V3.27273H200.553V10.0227ZM210.099 3.27273V7.02273H214.281V3.27273H215.622V12H214.281V8.27273H210.099V12H208.759V3.27273H210.099ZM221.73 12.1818C220.889 12.1818 220.164 11.9962 219.554 11.625C218.948 11.25 218.48 10.7273 218.151 10.0568C217.825 9.38258 217.662 8.59848 217.662 7.70455C217.662 6.81061 217.825 6.02273 218.151 5.34091C218.48 4.6553 218.938 4.12121 219.526 3.73864C220.116 3.35227 220.806 3.15909 221.594 3.15909C222.048 3.15909 222.497 3.23485 222.94 3.38636C223.384 3.53788 223.787 3.78409 224.151 4.125C224.514 4.46212 224.804 4.90909 225.02 5.46591C225.236 6.02273 225.344 6.70833 225.344 7.52273V8.09091H219.009C219.039 9.02273 219.302 9.73674 219.798 10.233C220.298 10.7292 220.942 10.9773 221.73 10.9773C222.257 10.9773 222.709 10.8636 223.088 10.6364C223.467 10.4091 223.741 10.0682 223.912 9.61364L225.207 9.97727C225.003 10.6364 224.594 11.1686 223.98 11.5739C223.366 11.9792 222.616 12.1818 221.73 12.1818ZM219.009 6.93182H223.98C223.98 6.19318 223.764 5.58144 223.332 5.09659C222.901 4.60795 222.321 4.36364 221.594 4.36364C221.082 4.36364 220.639 4.48295 220.264 4.72159C219.889 4.96023 219.594 5.27651 219.378 5.67045C219.162 6.06061 219.039 6.48106 219.009 6.93182ZM228.724 3.27273V7.02273H232.906V3.27273H234.247V12H232.906V8.27273H228.724V12H227.384V3.27273H228.724ZM238.037 3.27273V7.02273H242.219V3.27273H243.56V12H242.219V8.27273H238.037V12H236.696V3.27273H238.037ZM247.349 6.43182H249.668C250.69 6.43182 251.473 6.69129 252.014 7.21023C252.556 7.72917 252.827 8.38636 252.827 9.18182C252.827 9.70455 252.705 10.1799 252.463 10.608C252.221 11.0322 251.865 11.3712 251.395 11.625C250.925 11.875 250.349 12 249.668 12H246.009V3.27273H247.349V6.43182ZM247.349 7.68182V10.75H249.668C250.198 10.75 250.634 10.6098 250.974 10.3295C251.315 10.0492 251.486 9.68939 251.486 9.25C251.486 8.78788 251.315 8.41098 250.974 8.11932C250.634 7.82765 250.198 7.68182 249.668 7.68182H247.349ZM254.213 12V3.27273H255.554V12H254.213ZM259.349 10.0227L263.554 3.27273H265.099V12H263.759V5.25L259.577 12H258.009V3.27273H259.349V10.0227ZM262.668 0.363636H263.918C263.918 0.977273 263.705 1.47917 263.281 1.86932C262.857 2.25947 262.281 2.45455 261.554 2.45455C260.838 2.45455 260.268 2.25947 259.844 1.86932C259.423 1.47917 259.213 0.977273 259.213 0.363636H260.463C260.463 0.659091 260.545 0.91856 260.707 1.14205C260.874 1.36553 261.156 1.47727 261.554 1.47727C261.952 1.47727 262.236 1.36553 262.406 1.14205C262.58 0.91856 262.668 0.659091 262.668 0.363636ZM272.874 15.3864C272.646 15.3864 272.444 15.3674 272.266 15.3295C272.088 15.2955 271.964 15.2614 271.896 15.2273L272.237 14.0455C272.726 14.1705 273.133 14.1667 273.459 14.0341C273.788 13.9053 274.071 13.5152 274.305 12.8636L274.601 12.0455L271.374 3.27273H272.828L275.237 10.2273H275.328L277.737 3.27273H279.192L275.442 13.4091C274.949 14.7273 274.093 15.3864 272.874 15.3864ZM292.871 10.75L292.712 14.5H291.325V12H280.962V3.27273H282.303V10.75H285.598V3.27273H286.939V10.75H290.234V3.27273H291.575V10.75H292.871ZM298.386 12.1818C297.545 12.1818 296.82 11.9962 296.21 11.625C295.604 11.25 295.136 10.7273 294.807 10.0568C294.481 9.38258 294.318 8.59848 294.318 7.70455C294.318 6.81061 294.481 6.02273 294.807 5.34091C295.136 4.6553 295.595 4.12121 296.182 3.73864C296.773 3.35227 297.462 3.15909 298.25 3.15909C298.705 3.15909 299.153 3.23485 299.597 3.38636C300.04 3.53788 300.443 3.78409 300.807 4.125C301.17 4.46212 301.46 4.90909 301.676 5.46591C301.892 6.02273 302 6.70833 302 7.52273V8.09091H295.665C295.695 9.02273 295.958 9.73674 296.455 10.233C296.955 10.7292 297.598 10.9773 298.386 10.9773C298.913 10.9773 299.366 10.8636 299.744 10.6364C300.123 10.4091 300.398 10.0682 300.568 9.61364L301.864 9.97727C301.659 10.6364 301.25 11.1686 300.636 11.5739C300.023 11.9792 299.273 12.1818 298.386 12.1818ZM295.665 6.93182H300.636C300.636 6.19318 300.42 5.58144 299.989 5.09659C299.557 4.60795 298.977 4.36364 298.25 4.36364C297.739 4.36364 297.295 4.48295 296.92 4.72159C296.545 4.96023 296.25 5.27651 296.034 5.67045C295.818 6.06061 295.695 6.48106 295.665 6.93182ZM304.04 15.2727V3.27273H305.335V4.65909H305.494C305.593 4.50758 305.729 4.31439 305.903 4.07955C306.081 3.84091 306.335 3.62879 306.665 3.44318C306.998 3.25379 307.449 3.15909 308.017 3.15909C308.752 3.15909 309.4 3.3428 309.96 3.71023C310.521 4.07765 310.958 4.59848 311.273 5.27273C311.587 5.94697 311.744 6.74242 311.744 7.65909C311.744 8.58333 311.587 9.38447 311.273 10.0625C310.958 10.7367 310.523 11.2595 309.966 11.6307C309.409 11.9981 308.767 12.1818 308.04 12.1818C307.479 12.1818 307.03 12.089 306.693 11.9034C306.356 11.714 306.097 11.5 305.915 11.2614C305.733 11.0189 305.593 10.8182 305.494 10.6591H305.381V15.2727H304.04ZM305.358 7.63636C305.358 8.625 305.572 9.42992 306 10.0511C306.432 10.6686 307.051 10.9773 307.858 10.9773C308.419 10.9773 308.886 10.8295 309.261 10.5341C309.64 10.2348 309.924 9.83333 310.114 9.32955C310.307 8.82197 310.403 8.25758 310.403 7.63636C310.403 7.02273 310.309 6.4697 310.119 5.97727C309.934 5.48106 309.652 5.08902 309.273 4.80114C308.898 4.50947 308.426 4.36364 307.858 4.36364C307.04 4.36364 306.419 4.66477 305.994 5.26705C305.57 5.86932 305.358 6.65909 305.358 7.63636ZM320.267 0L320.949 0.818181C320.684 1.07576 320.377 1.25568 320.028 1.35795C319.68 1.46023 319.286 1.52273 318.847 1.54545C318.407 1.56818 317.919 1.59091 317.381 1.61364C316.472 1.64773 315.794 1.96212 315.347 2.55682C314.9 3.15151 314.631 4.01136 314.54 5.13636H314.653C314.949 4.59091 315.358 4.18939 315.881 3.93182C316.403 3.67424 316.964 3.54545 317.562 3.54545C318.244 3.54545 318.858 3.70455 319.403 4.02273C319.949 4.34091 320.381 4.8125 320.699 5.4375C321.017 6.0625 321.176 6.83333 321.176 7.75C321.176 8.66288 321.013 9.45076 320.688 10.1136C320.366 10.7765 319.913 11.2879 319.33 11.6477C318.75 12.0038 318.07 12.1818 317.29 12.1818C316.119 12.1818 315.174 11.767 314.455 10.9375C313.739 10.108 313.381 8.88636 313.381 7.27273V6.34091C313.381 2.42424 314.706 0.431818 317.358 0.363636C317.532 0.359848 317.697 0.357954 317.852 0.357954C318.011 0.354166 318.165 0.352272 318.312 0.352272C318.756 0.35606 319.138 0.344696 319.46 0.318181C319.782 0.287878 320.051 0.181818 320.267 0ZM317.29 10.9773C318.081 10.9773 318.703 10.6856 319.153 10.1023C319.608 9.51515 319.835 8.73106 319.835 7.75C319.835 6.79545 319.606 6.05682 319.148 5.53409C318.693 5.01136 318.066 4.75 317.267 4.75C316.491 4.75 315.875 5.01136 315.42 5.53409C314.97 6.05682 314.737 6.79545 314.722 7.75C314.722 8.72727 314.951 9.50947 315.409 10.0966C315.867 10.6837 316.494 10.9773 317.29 10.9773ZM324.205 12.0909C323.924 12.0909 323.684 11.9905 323.483 11.7898C323.282 11.589 323.182 11.3485 323.182 11.0682C323.182 10.7879 323.282 10.5473 323.483 10.3466C323.684 10.1458 323.924 10.0455 324.205 10.0455C324.485 10.0455 324.725 10.1458 324.926 10.3466C325.127 10.5473 325.227 10.7879 325.227 11.0682C325.227 11.3485 325.127 11.589 324.926 11.7898C324.725 11.9905 324.485 12.0909 324.205 12.0909ZM339.156 12L335.156 6.65909H333.724V12H332.315V0.363636H333.724V5.40909H334.338L338.997 0.363636H340.679L335.974 5.47727L340.838 12H339.156ZM342.477 15.2727V3.27273H343.773V4.65909H343.932C344.03 4.50758 344.167 4.31439 344.341 4.07955C344.519 3.84091 344.773 3.62879 345.102 3.44318C345.436 3.25379 345.886 3.15909 346.455 3.15909C347.189 3.15909 347.837 3.3428 348.398 3.71023C348.958 4.07765 349.396 4.59848 349.71 5.27273C350.025 5.94697 350.182 6.74242 350.182 7.65909C350.182 8.58333 350.025 9.38447 349.71 10.0625C349.396 10.7367 348.96 11.2595 348.403 11.6307C347.847 11.9981 347.205 12.1818 346.477 12.1818C345.917 12.1818 345.468 12.089 345.131 11.9034C344.794 11.714 344.534 11.5 344.352 11.2614C344.17 11.0189 344.03 10.8182 343.932 10.6591H343.818V15.2727H342.477ZM343.795 7.63636C343.795 8.625 344.009 9.42992 344.438 10.0511C344.869 10.6686 345.489 10.9773 346.295 10.9773C346.856 10.9773 347.324 10.8295 347.699 10.5341C348.078 10.2348 348.362 9.83333 348.551 9.32955C348.744 8.82197 348.841 8.25758 348.841 7.63636C348.841 7.02273 348.746 6.4697 348.557 5.97727C348.371 5.48106 348.089 5.08902 347.71 4.80114C347.335 4.50947 346.864 4.36364 346.295 4.36364C345.477 4.36364 344.856 4.66477 344.432 5.26705C344.008 5.86932 343.795 6.65909 343.795 7.63636ZM355.886 12.1818C355.045 12.1818 354.32 11.9962 353.71 11.625C353.104 11.25 352.636 10.7273 352.307 10.0568C351.981 9.38258 351.818 8.59848 351.818 7.70455C351.818 6.81061 351.981 6.02273 352.307 5.34091C352.636 4.6553 353.095 4.12121 353.682 3.73864C354.273 3.35227 354.962 3.15909 355.75 3.15909C356.205 3.15909 356.653 3.23485 357.097 3.38636C357.54 3.53788 357.943 3.78409 358.307 4.125C358.67 4.46212 358.96 4.90909 359.176 5.46591C359.392 6.02273 359.5 6.70833 359.5 7.52273V8.09091H353.165C353.195 9.02273 353.458 9.73674 353.955 10.233C354.455 10.7292 355.098 10.9773 355.886 10.9773C356.413 10.9773 356.866 10.8636 357.244 10.6364C357.623 10.4091 357.898 10.0682 358.068 9.61364L359.364 9.97727C359.159 10.6364 358.75 11.1686 358.136 11.5739C357.523 11.9792 356.773 12.1818 355.886 12.1818ZM353.165 6.93182H358.136C358.136 6.19318 357.92 5.58144 357.489 5.09659C357.057 4.60795 356.477 4.36364 355.75 4.36364C355.239 4.36364 354.795 4.48295 354.42 4.72159C354.045 4.96023 353.75 5.27651 353.534 5.67045C353.318 6.06061 353.195 6.48106 353.165 6.93182ZM360.608 14.5V10.75H361.335C361.57 10.5038 361.765 10.2254 361.92 9.91477C362.076 9.60417 362.205 9.19886 362.307 8.69886C362.409 8.19886 362.494 7.54167 362.562 6.72727L362.858 3.27273H368.403V10.75H369.744V14.5H368.403V12H361.949V14.5H360.608ZM362.858 10.75H367.062V4.52273H364.108L363.881 6.72727C363.786 7.64015 363.669 8.4375 363.528 9.11932C363.388 9.80114 363.165 10.3447 362.858 10.75ZM372.865 10.0227L377.07 3.27273H378.615V12H377.274V5.25L373.092 12H371.524V3.27273H372.865V10.0227ZM379.884 4.52273V3.27273H386.974V4.52273H384.111V12H382.77V4.52273H379.884ZM392.023 12.1818C391.235 12.1818 390.544 11.9943 389.949 11.6193C389.358 11.2443 388.896 10.7197 388.562 10.0455C388.233 9.37121 388.068 8.58333 388.068 7.68182C388.068 6.77273 388.233 5.97917 388.562 5.30114C388.896 4.62311 389.358 4.09659 389.949 3.72159C390.544 3.34659 391.235 3.15909 392.023 3.15909C392.811 3.15909 393.5 3.34659 394.091 3.72159C394.686 4.09659 395.148 4.62311 395.477 5.30114C395.811 5.97917 395.977 6.77273 395.977 7.68182C395.977 8.58333 395.811 9.37121 395.477 10.0455C395.148 10.7197 394.686 11.2443 394.091 11.6193C393.5 11.9943 392.811 12.1818 392.023 12.1818ZM392.023 10.9773C392.621 10.9773 393.114 10.8239 393.5 10.517C393.886 10.2102 394.172 9.80682 394.358 9.30682C394.544 8.80682 394.636 8.26515 394.636 7.68182C394.636 7.09848 394.544 6.55492 394.358 6.05114C394.172 5.54735 393.886 5.14015 393.5 4.82955C393.114 4.51894 392.621 4.36364 392.023 4.36364C391.424 4.36364 390.932 4.51894 390.545 4.82955C390.159 5.14015 389.873 5.54735 389.688 6.05114C389.502 6.55492 389.409 7.09848 389.409 7.68182C389.409 8.26515 389.502 8.80682 389.688 9.30682C389.873 9.80682 390.159 10.2102 390.545 10.517C390.932 10.8239 391.424 10.9773 392.023 10.9773ZM398.024 15.2727V3.27273H399.32V4.65909H399.479C399.577 4.50758 399.714 4.31439 399.888 4.07955C400.066 3.84091 400.32 3.62879 400.649 3.44318C400.982 3.25379 401.433 3.15909 402.001 3.15909C402.736 3.15909 403.384 3.3428 403.945 3.71023C404.505 4.07765 404.943 4.59848 405.257 5.27273C405.571 5.94697 405.729 6.74242 405.729 7.65909C405.729 8.58333 405.571 9.38447 405.257 10.0625C404.943 10.7367 404.507 11.2595 403.95 11.6307C403.393 11.9981 402.751 12.1818 402.024 12.1818C401.464 12.1818 401.015 12.089 400.678 11.9034C400.34 11.714 400.081 11.5 399.899 11.2614C399.717 11.0189 399.577 10.8182 399.479 10.6591H399.365V15.2727H398.024ZM399.342 7.63636C399.342 8.625 399.556 9.42992 399.984 10.0511C400.416 10.6686 401.036 10.9773 401.842 10.9773C402.403 10.9773 402.871 10.8295 403.246 10.5341C403.625 10.2348 403.909 9.83333 404.098 9.32955C404.291 8.82197 404.388 8.25758 404.388 7.63636C404.388 7.02273 404.293 6.4697 404.104 5.97727C403.918 5.48106 403.636 5.08902 403.257 4.80114C402.882 4.50947 402.411 4.36364 401.842 4.36364C401.024 4.36364 400.403 4.66477 399.979 5.26705C399.554 5.86932 399.342 6.65909 399.342 7.63636ZM414.842 12.2045C414.289 12.2045 413.787 12.1004 413.337 11.892C412.886 11.6799 412.528 11.375 412.263 10.9773C411.998 10.5758 411.865 10.0909 411.865 9.52273C411.865 9.02273 411.964 8.61742 412.161 8.30682C412.357 7.99242 412.621 7.74621 412.95 7.56818C413.28 7.39015 413.643 7.25758 414.041 7.17045C414.443 7.07955 414.846 7.00758 415.251 6.95455C415.782 6.88636 416.212 6.83523 416.541 6.80114C416.875 6.76326 417.117 6.70076 417.268 6.61364C417.424 6.52652 417.501 6.375 417.501 6.15909V6.11364C417.501 5.55303 417.348 5.11742 417.041 4.80682C416.738 4.49621 416.278 4.34091 415.661 4.34091C415.02 4.34091 414.518 4.48106 414.155 4.76136C413.791 5.04167 413.536 5.34091 413.388 5.65909L412.115 5.20455C412.342 4.67424 412.645 4.26136 413.024 3.96591C413.407 3.66667 413.823 3.45833 414.274 3.34091C414.729 3.2197 415.176 3.15909 415.615 3.15909C415.895 3.15909 416.217 3.19318 416.581 3.26136C416.948 3.32576 417.303 3.46023 417.643 3.66477C417.988 3.86932 418.274 4.17803 418.501 4.59091C418.729 5.00379 418.842 5.55682 418.842 6.25V12H417.501V10.8182H417.433C417.342 11.0076 417.191 11.2102 416.979 11.4261C416.767 11.642 416.484 11.8258 416.132 11.9773C415.78 12.1288 415.35 12.2045 414.842 12.2045ZM415.047 11C415.577 11 416.024 10.8958 416.388 10.6875C416.755 10.4792 417.032 10.2102 417.217 9.88068C417.407 9.55114 417.501 9.20455 417.501 8.84091V7.61364C417.445 7.68182 417.32 7.74432 417.126 7.80114C416.937 7.85417 416.717 7.90151 416.467 7.94318C416.221 7.98106 415.981 8.01515 415.746 8.04545C415.515 8.07197 415.327 8.0947 415.183 8.11364C414.835 8.15909 414.509 8.23295 414.206 8.33523C413.907 8.43371 413.664 8.58333 413.479 8.78409C413.297 8.98106 413.206 9.25 413.206 9.59091C413.206 10.0568 413.378 10.4091 413.723 10.6477C414.071 10.8826 414.513 11 415.047 11ZM421.29 15.2727V3.27273H422.585V4.65909H422.744C422.843 4.50758 422.979 4.31439 423.153 4.07955C423.331 3.84091 423.585 3.62879 423.915 3.44318C424.248 3.25379 424.699 3.15909 425.267 3.15909C426.002 3.15909 426.65 3.3428 427.21 3.71023C427.771 4.07765 428.208 4.59848 428.523 5.27273C428.837 5.94697 428.994 6.74242 428.994 7.65909C428.994 8.58333 428.837 9.38447 428.523 10.0625C428.208 10.7367 427.773 11.2595 427.216 11.6307C426.659 11.9981 426.017 12.1818 425.29 12.1818C424.729 12.1818 424.28 12.089 423.943 11.9034C423.606 11.714 423.347 11.5 423.165 11.2614C422.983 11.0189 422.843 10.8182 422.744 10.6591H422.631V15.2727H421.29ZM422.608 7.63636C422.608 8.625 422.822 9.42992 423.25 10.0511C423.682 10.6686 424.301 10.9773 425.108 10.9773C425.669 10.9773 426.136 10.8295 426.511 10.5341C426.89 10.2348 427.174 9.83333 427.364 9.32955C427.557 8.82197 427.653 8.25758 427.653 7.63636C427.653 7.02273 427.559 6.4697 427.369 5.97727C427.184 5.48106 426.902 5.08902 426.523 4.80114C426.148 4.50947 425.676 4.36364 425.108 4.36364C424.29 4.36364 423.669 4.66477 423.244 5.26705C422.82 5.86932 422.608 6.65909 422.608 7.63636ZM434.699 12.1818C433.858 12.1818 433.133 11.9962 432.523 11.625C431.917 11.25 431.449 10.7273 431.119 10.0568C430.794 9.38258 430.631 8.59848 430.631 7.70455C430.631 6.81061 430.794 6.02273 431.119 5.34091C431.449 4.6553 431.907 4.12121 432.494 3.73864C433.085 3.35227 433.775 3.15909 434.562 3.15909C435.017 3.15909 435.466 3.23485 435.909 3.38636C436.352 3.53788 436.756 3.78409 437.119 4.125C437.483 4.46212 437.773 4.90909 437.989 5.46591C438.205 6.02273 438.312 6.70833 438.312 7.52273V8.09091H431.977C432.008 9.02273 432.271 9.73674 432.767 10.233C433.267 10.7292 433.911 10.9773 434.699 10.9773C435.225 10.9773 435.678 10.8636 436.057 10.6364C436.436 10.4091 436.71 10.0682 436.881 9.61364L438.176 9.97727C437.972 10.6364 437.562 11.1686 436.949 11.5739C436.335 11.9792 435.585 12.1818 434.699 12.1818ZM431.977 6.93182H436.949C436.949 6.19318 436.733 5.58144 436.301 5.09659C435.869 4.60795 435.29 4.36364 434.562 4.36364C434.051 4.36364 433.608 4.48295 433.233 4.72159C432.858 4.96023 432.563 5.27651 432.347 5.67045C432.131 6.06061 432.008 6.48106 431.977 6.93182ZM441.693 3.27273V7.02273H445.875V3.27273H447.216V12H445.875V8.27273H441.693V12H440.352V3.27273H441.693ZM448.733 14.5V10.75H449.46C449.695 10.5038 449.89 10.2254 450.045 9.91477C450.201 9.60417 450.33 9.19886 450.432 8.69886C450.534 8.19886 450.619 7.54167 450.688 6.72727L450.983 3.27273H456.528V10.75H457.869V14.5H456.528V12H450.074V14.5H448.733ZM450.983 10.75H455.188V4.52273H452.233L452.006 6.72727C451.911 7.64015 451.794 8.4375 451.653 9.11932C451.513 9.80114 451.29 10.3447 450.983 10.75ZM460.467 15.3864C460.24 15.3864 460.037 15.3674 459.859 15.3295C459.681 15.2955 459.558 15.2614 459.49 15.2273L459.831 14.0455C460.32 14.1705 460.727 14.1667 461.053 14.0341C461.382 13.9053 461.664 13.5152 461.899 12.8636L462.195 12.0455L458.967 3.27273H460.422L462.831 10.2273H462.922L465.331 3.27273H466.786L463.036 13.4091C462.543 14.7273 461.687 15.3864 460.467 15.3864ZM471.902 12.1818C471.061 12.1818 470.336 11.9962 469.726 11.625C469.12 11.25 468.652 10.7273 468.322 10.0568C467.997 9.38258 467.834 8.59848 467.834 7.70455C467.834 6.81061 467.997 6.02273 468.322 5.34091C468.652 4.6553 469.11 4.12121 469.697 3.73864C470.288 3.35227 470.978 3.15909 471.766 3.15909C472.22 3.15909 472.669 3.23485 473.112 3.38636C473.555 3.53788 473.959 3.78409 474.322 4.125C474.686 4.46212 474.976 4.90909 475.192 5.46591C475.408 6.02273 475.516 6.70833 475.516 7.52273V8.09091H469.18C469.211 9.02273 469.474 9.73674 469.97 10.233C470.47 10.7292 471.114 10.9773 471.902 10.9773C472.429 10.9773 472.881 10.8636 473.26 10.6364C473.639 10.4091 473.913 10.0682 474.084 9.61364L475.379 9.97727C475.175 10.6364 474.766 11.1686 474.152 11.5739C473.538 11.9792 472.788 12.1818 471.902 12.1818ZM469.18 6.93182H474.152C474.152 6.19318 473.936 5.58144 473.504 5.09659C473.072 4.60795 472.493 4.36364 471.766 4.36364C471.254 4.36364 470.811 4.48295 470.436 4.72159C470.061 4.96023 469.766 5.27651 469.55 5.67045C469.334 6.06061 469.211 6.48106 469.18 6.93182ZM476.743 4.52273V3.27273H483.834V4.52273H480.97V12H479.629V4.52273H476.743ZM1.56818 22.2727V26.0227H5.75V22.2727H7.09091V31H5.75V27.2727H1.56818V31H0.227273V22.2727H1.56818ZM13.1989 31.1818C12.358 31.1818 11.6326 30.9962 11.0227 30.625C10.4167 30.25 9.94886 29.7273 9.61932 29.0568C9.29356 28.3826 9.13068 27.5985 9.13068 26.7045C9.13068 25.8106 9.29356 25.0227 9.61932 24.3409C9.94886 23.6553 10.4072 23.1212 10.9943 22.7386C11.5852 22.3523 12.2746 22.1591 13.0625 22.1591C13.517 22.1591 13.9659 22.2348 14.4091 22.3864C14.8523 22.5379 15.2557 22.7841 15.6193 23.125C15.983 23.4621 16.2727 23.9091 16.4886 24.4659C16.7045 25.0227 16.8125 25.7083 16.8125 26.5227V27.0909H10.4773C10.5076 28.0227 10.7708 28.7367 11.267 29.233C11.767 29.7292 12.411 29.9773 13.1989 29.9773C13.7254 29.9773 14.178 29.8636 14.5568 29.6364C14.9356 29.4091 15.2102 29.0682 15.3807 28.6136L16.6761 28.9773C16.4716 29.6364 16.0625 30.1686 15.4489 30.5739C14.8352 30.9792 14.0852 31.1818 13.1989 31.1818ZM10.4773 25.9318H15.4489C15.4489 25.1932 15.233 24.5814 14.8011 24.0966C14.3693 23.608 13.7898 23.3636 13.0625 23.3636C12.5511 23.3636 12.108 23.483 11.733 23.7216C11.358 23.9602 11.0625 24.2765 10.8466 24.6705C10.6307 25.0606 10.5076 25.4811 10.4773 25.9318ZM18.3068 28.7727H19.7386C19.7689 29.1667 19.947 29.4659 20.2727 29.6705C20.6023 29.875 21.0303 29.9773 21.5568 29.9773C22.0947 29.9773 22.5549 29.8674 22.9375 29.6477C23.3201 29.4242 23.5114 29.0644 23.5114 28.5682C23.5114 28.1326 23.3523 27.7822 23.0341 27.517C22.7197 27.2481 22.2955 27.1136 21.7614 27.1136H20.2614V25.9091H21.7614C22.2955 25.9091 22.6894 25.7879 22.9432 25.5455C23.2008 25.303 23.3295 25 23.3295 24.6364C23.3295 24.2462 23.1913 23.9337 22.9148 23.6989C22.6383 23.4602 22.2462 23.3409 21.7386 23.3409C21.2273 23.3409 20.8011 23.4564 20.4602 23.6875C20.1193 23.9148 19.9394 24.2083 19.9205 24.5682H18.5114C18.5265 24.0985 18.6705 23.6837 18.9432 23.3239C19.2159 22.9602 19.5871 22.6761 20.0568 22.4716C20.5265 22.2633 21.0644 22.1591 21.6705 22.1591C22.2841 22.1591 22.8163 22.267 23.267 22.483C23.7216 22.6951 24.072 22.9848 24.3182 23.3523C24.5682 23.7159 24.6932 24.1288 24.6932 24.5909C24.6932 25.0833 24.5549 25.4811 24.2784 25.7841C24.0019 26.0871 23.6553 26.303 23.2386 26.4318V26.5227C23.7311 26.5568 24.1269 26.7708 24.4261 27.1648C24.7254 27.5549 24.875 28.0227 24.875 28.5682C24.875 29.0985 24.733 29.5606 24.4489 29.9545C24.1648 30.3447 23.7746 30.6477 23.2784 30.8636C22.7822 31.0758 22.2159 31.1818 21.5795 31.1818C20.9621 31.1818 20.4091 31.0814 19.9205 30.8807C19.4318 30.6761 19.0436 30.3939 18.7557 30.0341C18.4716 29.6705 18.322 29.25 18.3068 28.7727ZM29.3267 31.2045C28.7737 31.2045 28.2718 31.1004 27.821 30.892C27.3703 30.6799 27.0123 30.375 26.7472 29.9773C26.482 29.5758 26.3494 29.0909 26.3494 28.5227C26.3494 28.0227 26.4479 27.6174 26.6449 27.3068C26.8419 26.9924 27.1051 26.7462 27.4347 26.5682C27.7642 26.3902 28.1278 26.2576 28.5256 26.1705C28.9271 26.0795 29.3305 26.0076 29.7358 25.9545C30.2661 25.8864 30.696 25.8352 31.0256 25.8011C31.3589 25.7633 31.6013 25.7008 31.7528 25.6136C31.9081 25.5265 31.9858 25.375 31.9858 25.1591V25.1136C31.9858 24.553 31.8324 24.1174 31.5256 23.8068C31.2225 23.4962 30.7623 23.3409 30.1449 23.3409C29.5047 23.3409 29.0028 23.4811 28.6392 23.7614C28.2756 24.0417 28.0199 24.3409 27.8722 24.6591L26.5994 24.2045C26.8267 23.6742 27.1297 23.2614 27.5085 22.9659C27.8911 22.6667 28.3078 22.4583 28.7585 22.3409C29.2131 22.2197 29.66 22.1591 30.0994 22.1591C30.3797 22.1591 30.7017 22.1932 31.0653 22.2614C31.4328 22.3258 31.7869 22.4602 32.1278 22.6648C32.4725 22.8693 32.7585 23.178 32.9858 23.5909C33.2131 24.0038 33.3267 24.5568 33.3267 25.25V31H31.9858V29.8182H31.9176C31.8267 30.0076 31.6752 30.2102 31.4631 30.4261C31.2509 30.642 30.9688 30.8258 30.6165 30.9773C30.2642 31.1288 29.8343 31.2045 29.3267 31.2045ZM29.5312 30C30.0616 30 30.5085 29.8958 30.8722 29.6875C31.2396 29.4792 31.5161 29.2102 31.7017 28.8807C31.8911 28.5511 31.9858 28.2045 31.9858 27.8409V26.6136C31.929 26.6818 31.804 26.7443 31.6108 26.8011C31.4214 26.8542 31.2017 26.9015 30.9517 26.9432C30.7055 26.9811 30.465 27.0152 30.2301 27.0455C29.9991 27.072 29.8116 27.0947 29.6676 27.1136C29.3191 27.1591 28.9934 27.233 28.6903 27.3352C28.3911 27.4337 28.1487 27.5833 27.9631 27.7841C27.7813 27.9811 27.6903 28.25 27.6903 28.5909C27.6903 29.0568 27.8627 29.4091 28.2074 29.6477C28.5559 29.8826 28.9972 30 29.5312 30ZM35.7741 31V22.2727H37.1151V26.0682H38.0014L41.1378 22.2727H42.8651L39.3423 26.4773L42.9105 31H41.1832L38.3196 27.3182H37.1151V31H35.7741ZM47.554 31.1818C46.7661 31.1818 46.0748 30.9943 45.4801 30.6193C44.8892 30.2443 44.4271 29.7197 44.0938 29.0455C43.7642 28.3712 43.5994 27.5833 43.5994 26.6818C43.5994 25.7727 43.7642 24.9792 44.0938 24.3011C44.4271 23.6231 44.8892 23.0966 45.4801 22.7216C46.0748 22.3466 46.7661 22.1591 47.554 22.1591C48.3419 22.1591 49.0313 22.3466 49.6222 22.7216C50.2169 23.0966 50.679 23.6231 51.0085 24.3011C51.3419 24.9792 51.5085 25.7727 51.5085 26.6818C51.5085 27.5833 51.3419 28.3712 51.0085 29.0455C50.679 29.7197 50.2169 30.2443 49.6222 30.6193C49.0313 30.9943 48.3419 31.1818 47.554 31.1818ZM47.554 29.9773C48.1525 29.9773 48.6449 29.8239 49.0312 29.517C49.4176 29.2102 49.7036 28.8068 49.8892 28.3068C50.0748 27.8068 50.1676 27.2652 50.1676 26.6818C50.1676 26.0985 50.0748 25.5549 49.8892 25.0511C49.7036 24.5473 49.4176 24.1402 49.0312 23.8295C48.6449 23.5189 48.1525 23.3636 47.554 23.3636C46.9555 23.3636 46.4631 23.5189 46.0767 23.8295C45.6903 24.1402 45.4044 24.5473 45.2188 25.0511C45.0331 25.5549 44.9403 26.0985 44.9403 26.6818C44.9403 27.2652 45.0331 27.8068 45.2188 28.3068C45.4044 28.8068 45.6903 29.2102 46.0767 29.517C46.4631 29.8239 46.9555 29.9773 47.554 29.9773ZM54.8963 22.2727V26.0227H59.0781V22.2727H60.419V31H59.0781V27.2727H54.8963V31H53.5554V22.2727H54.8963ZM64.2088 22.2727V26.0227H68.3906V22.2727H69.7315V31H68.3906V27.2727H64.2088V31H62.8679V22.2727H64.2088ZM73.5213 25.4318H75.8395C76.8622 25.4318 77.6444 25.6913 78.1861 26.2102C78.7277 26.7292 78.9986 27.3864 78.9986 28.1818C78.9986 28.7045 78.8774 29.1799 78.6349 29.608C78.3925 30.0322 78.0365 30.3712 77.5668 30.625C77.0971 30.875 76.5213 31 75.8395 31H72.1804V22.2727H73.5213V25.4318ZM73.5213 26.6818V29.75H75.8395C76.3698 29.75 76.8054 29.6098 77.1463 29.3295C77.4872 29.0492 77.6577 28.6894 77.6577 28.25C77.6577 27.7879 77.4872 27.411 77.1463 27.1193C76.8054 26.8277 76.3698 26.6818 75.8395 26.6818H73.5213ZM80.3849 31V22.2727H81.7259V31H80.3849ZM85.5213 29.0227L89.7259 22.2727H91.2713V31H89.9304V24.25L85.7486 31H84.1804V22.2727H85.5213V29.0227ZM88.8395 19.3636H90.0895C90.0895 19.9773 89.8774 20.4792 89.4531 20.8693C89.0289 21.2595 88.4531 21.4545 87.7259 21.4545C87.0099 21.4545 86.4399 21.2595 86.0156 20.8693C85.5952 20.4792 85.3849 19.9773 85.3849 19.3636H86.6349C86.6349 19.6591 86.7164 19.9186 86.8793 20.142C87.0459 20.3655 87.3281 20.4773 87.7259 20.4773C88.1236 20.4773 88.4077 20.3655 88.5781 20.142C88.7524 19.9186 88.8395 19.6591 88.8395 19.3636ZM101.773 31.1818C100.955 31.1818 100.25 30.9886 99.6591 30.6023C99.0682 30.2159 98.6136 29.6837 98.2955 29.0057C97.9773 28.3277 97.8182 27.553 97.8182 26.6818C97.8182 25.7955 97.9811 25.0133 98.3068 24.3352C98.6364 23.6534 99.0947 23.1212 99.6818 22.7386C100.273 22.3523 100.962 22.1591 101.75 22.1591C102.364 22.1591 102.917 22.2727 103.409 22.5C103.902 22.7273 104.305 23.0455 104.619 23.4545C104.934 23.8636 105.129 24.3409 105.205 24.8864H103.864C103.761 24.4886 103.534 24.1364 103.182 23.8295C102.833 23.5189 102.364 23.3636 101.773 23.3636C100.989 23.3636 100.356 23.6629 99.875 24.2614C99.3977 24.8561 99.1591 25.6477 99.1591 26.6364C99.1591 27.6477 99.3958 28.4583 99.8693 29.0682C100.343 29.6742 100.977 29.9773 101.773 29.9773C102.295 29.9773 102.742 29.8428 103.114 29.5739C103.489 29.3049 103.739 28.9318 103.864 28.4545H105.205C105.129 28.9697 104.941 29.4337 104.642 29.8466C104.347 30.2557 103.955 30.5814 103.466 30.8239C102.981 31.0625 102.417 31.1818 101.773 31.1818ZM110.824 31.1818C109.983 31.1818 109.258 30.9962 108.648 30.625C108.042 30.25 107.574 29.7273 107.244 29.0568C106.919 28.3826 106.756 27.5985 106.756 26.7045C106.756 25.8106 106.919 25.0227 107.244 24.3409C107.574 23.6553 108.032 23.1212 108.619 22.7386C109.21 22.3523 109.9 22.1591 110.688 22.1591C111.142 22.1591 111.591 22.2348 112.034 22.3864C112.477 22.5379 112.881 22.7841 113.244 23.125C113.608 23.4621 113.898 23.9091 114.114 24.4659C114.33 25.0227 114.438 25.7083 114.438 26.5227V27.0909H108.102C108.133 28.0227 108.396 28.7367 108.892 29.233C109.392 29.7292 110.036 29.9773 110.824 29.9773C111.35 29.9773 111.803 29.8636 112.182 29.6364C112.561 29.4091 112.835 29.0682 113.006 28.6136L114.301 28.9773C114.097 29.6364 113.688 30.1686 113.074 30.5739C112.46 30.9792 111.71 31.1818 110.824 31.1818ZM108.102 25.9318H113.074C113.074 25.1932 112.858 24.5814 112.426 24.0966C111.994 23.608 111.415 23.3636 110.688 23.3636C110.176 23.3636 109.733 23.483 109.358 23.7216C108.983 23.9602 108.688 24.2765 108.472 24.6705C108.256 25.0606 108.133 25.4811 108.102 25.9318ZM116.477 34.2727V22.2727H117.773V23.6591H117.932C118.03 23.5076 118.167 23.3144 118.341 23.0795C118.519 22.8409 118.773 22.6288 119.102 22.4432C119.436 22.2538 119.886 22.1591 120.455 22.1591C121.189 22.1591 121.837 22.3428 122.398 22.7102C122.958 23.0777 123.396 23.5985 123.71 24.2727C124.025 24.947 124.182 25.7424 124.182 26.6591C124.182 27.5833 124.025 28.3845 123.71 29.0625C123.396 29.7367 122.96 30.2595 122.403 30.6307C121.847 30.9981 121.205 31.1818 120.477 31.1818C119.917 31.1818 119.468 31.089 119.131 30.9034C118.794 30.714 118.534 30.5 118.352 30.2614C118.17 30.0189 118.03 29.8182 117.932 29.6591H117.818V34.2727H116.477ZM117.795 26.6364C117.795 27.625 118.009 28.4299 118.438 29.0511C118.869 29.6686 119.489 29.9773 120.295 29.9773C120.856 29.9773 121.324 29.8295 121.699 29.5341C122.078 29.2348 122.362 28.8333 122.551 28.3295C122.744 27.822 122.841 27.2576 122.841 26.6364C122.841 26.0227 122.746 25.4697 122.557 24.9773C122.371 24.4811 122.089 24.089 121.71 23.8011C121.335 23.5095 120.864 23.3636 120.295 23.3636C119.477 23.3636 118.856 23.6648 118.432 24.267C118.008 24.8693 117.795 25.6591 117.795 26.6364ZM126.227 31V22.2727H129.795C130.735 22.2727 131.481 22.4848 132.034 22.9091C132.587 23.3333 132.864 23.8939 132.864 24.5909C132.864 25.1212 132.706 25.5322 132.392 25.8239C132.078 26.1117 131.674 26.3068 131.182 26.4091C131.504 26.4545 131.816 26.5682 132.119 26.75C132.426 26.9318 132.68 27.1818 132.881 27.5C133.081 27.8144 133.182 28.2008 133.182 28.6591C133.182 29.3295 132.93 29.8883 132.426 30.3352C131.922 30.7784 131.227 31 130.341 31H126.227ZM127.5 29.7727H130.341C130.803 29.7727 131.165 29.6629 131.426 29.4432C131.688 29.2235 131.818 28.9242 131.818 28.5455C131.818 28.0947 131.688 27.7405 131.426 27.483C131.165 27.2216 130.803 27.0909 130.341 27.0909H127.5V29.7727ZM127.5 25.9318H129.795C130.333 25.9318 130.756 25.822 131.062 25.6023C131.369 25.3788 131.523 25.072 131.523 24.6818C131.523 24.3144 131.369 24.0265 131.062 23.8182C130.756 23.6061 130.333 23.5 129.795 23.5H127.5V25.9318ZM136.553 29.0227L140.757 22.2727H142.303V31H140.962V24.25L136.78 31H135.212V22.2727H136.553V29.0227ZM143.571 23.5227V22.2727H150.662V23.5227H147.798V31H146.457V23.5227H143.571ZM153.436 34.3864C153.209 34.3864 153.006 34.3674 152.828 34.3295C152.65 34.2955 152.527 34.2614 152.459 34.2273L152.8 33.0455C153.288 33.1705 153.696 33.1667 154.021 33.0341C154.351 32.9053 154.633 32.5152 154.868 31.8636L155.163 31.0455L151.936 22.2727H153.391L155.8 29.2273H155.891L158.3 22.2727H159.754L156.004 32.4091C155.512 33.7273 154.656 34.3864 153.436 34.3864ZM161.024 23.5227V22.2727H168.115V23.5227H165.251V31H163.911V23.5227H161.024ZM169.595 31.0909C169.315 31.0909 169.074 30.9905 168.874 30.7898C168.673 30.589 168.572 30.3485 168.572 30.0682C168.572 29.7879 168.673 29.5473 168.874 29.3466C169.074 29.1458 169.315 29.0455 169.595 29.0455C169.875 29.0455 170.116 29.1458 170.317 29.3466C170.518 29.5473 170.618 29.7879 170.618 30.0682C170.618 30.3485 170.518 30.589 170.317 30.7898C170.116 30.9905 169.875 31.0909 169.595 31.0909Z" fill="#676767"/>
</svg>
