<svg width="216" height="12" viewBox="0 0 216 12" fill="none" xmlns="http://www.w3.org/2000/svg">
<path d="M1.51705 9.11932V8.13068H2.0625C2.37784 8.13068 2.62074 8.04261 2.79119 7.86648C2.96165 7.6875 3.09375 7.49148 3.1875 7.27841L3.32386 6.95455L0.306818 0.272727H1.44886L3.85227 5.69318L6.05114 0.272727H7.17614L4.15909 7.58523C4.03977 7.85795 3.90341 8.1108 3.75 8.34375C3.59943 8.5767 3.39347 8.7642 3.1321 8.90625C2.87358 9.0483 2.52273 9.11932 2.07955 9.11932H1.51705ZM7.99964 7.32955H9.07351C9.09624 7.625 9.22976 7.84943 9.47408 8.00284C9.72124 8.15625 10.0423 8.23295 10.4371 8.23295C10.8406 8.23295 11.1857 8.15057 11.4727 7.9858C11.7596 7.81818 11.9031 7.5483 11.9031 7.17614C11.9031 6.84943 11.7837 6.58665 11.5451 6.38778C11.3093 6.18608 10.9911 6.08523 10.5906 6.08523H9.46555V5.18182H10.5906C10.9911 5.18182 11.2866 5.09091 11.4769 4.90909C11.6701 4.72727 11.7667 4.5 11.7667 4.22727C11.7667 3.93466 11.663 3.70028 11.4556 3.52415C11.2482 3.34517 10.9542 3.25568 10.5735 3.25568C10.19 3.25568 9.87038 3.34233 9.6147 3.51562C9.35902 3.68608 9.22408 3.90625 9.20987 4.17614H8.15305C8.16442 3.82386 8.27237 3.51278 8.47692 3.2429C8.68146 2.97017 8.95987 2.7571 9.31214 2.60369C9.66442 2.44744 10.0678 2.36932 10.5224 2.36932C10.9826 2.36932 11.3817 2.45028 11.7198 2.61222C12.0607 2.77131 12.3235 2.98864 12.5082 3.2642C12.6957 3.53693 12.7894 3.84659 12.7894 4.19318C12.7894 4.5625 12.6857 4.8608 12.4783 5.08807C12.271 5.31534 12.011 5.47727 11.6985 5.57386V5.64205C12.0678 5.66761 12.3647 5.82812 12.5891 6.12358C12.8136 6.41619 12.9258 6.76705 12.9258 7.17614C12.9258 7.57386 12.8192 7.92045 12.6062 8.21591C12.3931 8.50852 12.1005 8.7358 11.7283 8.89773C11.3562 9.05682 10.9315 9.13636 10.4542 9.13636C9.99112 9.13636 9.57635 9.06108 9.20987 8.91051C8.84339 8.7571 8.5522 8.54545 8.33629 8.27557C8.12322 8.00284 8.01101 7.6875 7.99964 7.32955ZM15.3441 2.45455V5.26705H18.4805V2.45455H19.4862V9H18.4805V6.20455H15.3441V9H14.3384V2.45455H15.3441ZM23.2489 9.15341C22.8342 9.15341 22.4577 9.07528 22.1197 8.91903C21.7816 8.75994 21.5131 8.53125 21.3143 8.23295C21.1154 7.93182 21.016 7.56818 21.016 7.14205C21.016 6.76705 21.0898 6.46307 21.2376 6.23011C21.3853 5.99432 21.5827 5.80966 21.8299 5.67614C22.0771 5.54261 22.3498 5.44318 22.6481 5.37784C22.9492 5.30966 23.2518 5.25568 23.5558 5.21591C23.9535 5.16477 24.2759 5.12642 24.5231 5.10085C24.7731 5.07244 24.9549 5.02557 25.0685 4.96023C25.185 4.89489 25.2433 4.78125 25.2433 4.61932V4.58523C25.2433 4.16477 25.1282 3.83807 24.8981 3.60511C24.6708 3.37216 24.3256 3.25568 23.8626 3.25568C23.3825 3.25568 23.006 3.3608 22.7333 3.57102C22.4606 3.78125 22.2688 4.00568 22.158 4.24432L21.2035 3.90341C21.3739 3.50568 21.6012 3.19602 21.8853 2.97443C22.1722 2.75 22.4847 2.59375 22.8228 2.50568C23.1637 2.41477 23.4989 2.36932 23.8285 2.36932C24.0387 2.36932 24.2802 2.39489 24.5529 2.44602C24.8285 2.49432 25.0941 2.59517 25.3498 2.74858C25.6083 2.90199 25.8228 3.13352 25.9933 3.44318C26.1637 3.75284 26.2489 4.16761 26.2489 4.6875V9H25.2433V8.11364H25.1921C25.1239 8.25568 25.0103 8.40767 24.8512 8.5696C24.6921 8.73153 24.4805 8.86932 24.2163 8.98295C23.9521 9.09659 23.6296 9.15341 23.2489 9.15341ZM23.4023 8.25C23.8001 8.25 24.1353 8.17188 24.408 8.01562C24.6836 7.85938 24.891 7.65767 25.0302 7.41051C25.1722 7.16335 25.2433 6.90341 25.2433 6.63068V5.71023C25.2006 5.76136 25.1069 5.80824 24.962 5.85085C24.82 5.89062 24.6552 5.92614 24.4677 5.95739C24.283 5.9858 24.1026 6.01136 23.9265 6.03409C23.7532 6.05398 23.6126 6.07102 23.5046 6.08523C23.2433 6.11932 22.9989 6.17472 22.7717 6.25142C22.5472 6.32528 22.3654 6.4375 22.2262 6.58807C22.0898 6.7358 22.0217 6.9375 22.0217 7.19318C22.0217 7.54261 22.1509 7.80682 22.4094 7.9858C22.6708 8.16193 23.0018 8.25 23.4023 8.25ZM29.0902 7.51705L32.2436 2.45455H33.4027V9H32.397V3.9375L29.2607 9H28.0845V2.45455H29.0902V7.51705ZM31.5788 0.272727H32.5163C32.5163 0.732955 32.3572 1.10938 32.0391 1.40199C31.7209 1.6946 31.2891 1.84091 30.7436 1.84091C30.2067 1.84091 29.7791 1.6946 29.4609 1.40199C29.1456 1.10938 28.9879 0.732955 28.9879 0.272727H29.9254C29.9254 0.494318 29.9865 0.68892 30.1087 0.856534C30.2337 1.02415 30.4453 1.10795 30.7436 1.10795C31.0419 1.10795 31.255 1.02415 31.3828 0.856534C31.5135 0.68892 31.5788 0.494318 31.5788 0.272727ZM43.4776 0L43.989 0.613636C43.7901 0.806818 43.56 0.941761 43.2987 1.01847C43.0373 1.09517 42.7418 1.14205 42.4123 1.15909C42.0827 1.17614 41.7163 1.19318 41.3129 1.21023C40.631 1.2358 40.1225 1.47159 39.7873 1.91761C39.4521 2.36364 39.2504 3.00852 39.1822 3.85227H39.2674C39.489 3.44318 39.7958 3.14205 40.1879 2.94886C40.5799 2.75568 41.0004 2.65909 41.4492 2.65909C41.9606 2.65909 42.4208 2.77841 42.8299 3.01705C43.239 3.25568 43.5629 3.60938 43.8015 4.07812C44.0401 4.54688 44.1594 5.125 44.1594 5.8125C44.1594 6.49716 44.0373 7.08807 43.793 7.58523C43.5515 8.08239 43.212 8.46591 42.7745 8.7358C42.3398 9.00284 41.8299 9.13636 41.2447 9.13636C40.3668 9.13636 39.658 8.82528 39.1183 8.20312C38.5813 7.58097 38.3129 6.66477 38.3129 5.45455V4.75568C38.3129 1.81818 39.3072 0.323864 41.2958 0.272727C41.4265 0.269886 41.5501 0.268466 41.6665 0.268466C41.7859 0.265625 41.9009 0.264204 42.0117 0.264204C42.3441 0.267045 42.631 0.258522 42.8725 0.238636C43.114 0.215909 43.3157 0.136364 43.4776 0ZM41.2447 8.23295C41.8384 8.23295 42.3043 8.0142 42.6424 7.5767C42.9833 7.13636 43.1538 6.5483 43.1538 5.8125C43.1538 5.09659 42.9819 4.54261 42.6381 4.15057C42.2972 3.75852 41.8271 3.5625 41.2276 3.5625C40.6452 3.5625 40.1836 3.75852 39.8427 4.15057C39.5046 4.54261 39.3299 5.09659 39.3185 5.8125C39.3185 6.54545 39.4904 7.1321 39.8342 7.57244C40.1779 8.01278 40.6481 8.23295 41.2447 8.23295ZM48.3569 9.13636C47.766 9.13636 47.2475 8.99574 46.8015 8.71449C46.3583 8.43324 46.0117 8.03977 45.7617 7.53409C45.5146 7.02841 45.391 6.4375 45.391 5.76136C45.391 5.07955 45.5146 4.48437 45.7617 3.97585C46.0117 3.46733 46.3583 3.07244 46.8015 2.79119C47.2475 2.50994 47.766 2.36932 48.3569 2.36932C48.9478 2.36932 49.4648 2.50994 49.908 2.79119C50.354 3.07244 50.7006 3.46733 50.9478 3.97585C51.1978 4.48437 51.3228 5.07955 51.3228 5.76136C51.3228 6.4375 51.1978 7.02841 50.9478 7.53409C50.7006 8.03977 50.354 8.43324 49.908 8.71449C49.4648 8.99574 48.9478 9.13636 48.3569 9.13636ZM48.3569 8.23295C48.8058 8.23295 49.1751 8.1179 49.4648 7.88778C49.7546 7.65767 49.9691 7.35511 50.1083 6.98011C50.2475 6.60511 50.3171 6.19886 50.3171 5.76136C50.3171 5.32386 50.2475 4.91619 50.1083 4.53835C49.9691 4.16051 49.7546 3.85511 49.4648 3.62216C49.1751 3.3892 48.8058 3.27273 48.3569 3.27273C47.908 3.27273 47.5387 3.3892 47.2489 3.62216C46.9592 3.85511 46.7447 4.16051 46.6055 4.53835C46.4663 4.91619 46.3967 5.32386 46.3967 5.76136C46.3967 6.19886 46.4663 6.60511 46.6055 6.98011C46.7447 7.35511 46.9592 7.65767 47.2489 7.88778C47.5387 8.1179 47.908 8.23295 48.3569 8.23295ZM52.2784 9V8.0625H52.517C52.7784 8.0625 52.983 7.99006 53.1307 7.84517C53.2784 7.69744 53.3878 7.42898 53.4588 7.03977C53.5298 6.64773 53.5795 6.08523 53.608 5.35227L53.7273 2.45455H58.0909V9H57.0852V3.39205H54.6818L54.5795 5.72727C54.5483 6.44318 54.4716 7.04403 54.3494 7.52983C54.2273 8.01562 54.0284 8.3821 53.7528 8.62926C53.4801 8.87642 53.1023 9 52.6193 9H52.2784ZM60.9418 4.82386H62.6804C63.4474 4.82386 64.0341 5.01847 64.4403 5.40767C64.8466 5.79687 65.0497 6.28977 65.0497 6.88636C65.0497 7.27841 64.9588 7.63494 64.777 7.95597C64.5952 8.27415 64.3281 8.52841 63.9759 8.71875C63.6236 8.90625 63.1918 9 62.6804 9H59.9361V2.45455H60.9418V4.82386ZM60.9418 5.76136V8.0625H62.6804C63.0781 8.0625 63.4048 7.95739 63.6605 7.74716C63.9162 7.53693 64.044 7.26705 64.044 6.9375C64.044 6.59091 63.9162 6.30824 63.6605 6.08949C63.4048 5.87074 63.0781 5.76136 62.6804 5.76136H60.9418ZM66.5806 2.45455H67.5863V8.0625H70.0579V2.45455H71.0636V8.0625H73.5352V2.45455H74.5408V9H66.5806V2.45455ZM79.1218 9.13636C78.4911 9.13636 77.9471 8.99716 77.4897 8.71875C77.0352 8.4375 76.6843 8.04545 76.4371 7.54261C76.1928 7.03693 76.0707 6.44886 76.0707 5.77841C76.0707 5.10795 76.1928 4.51705 76.4371 4.00568C76.6843 3.49148 77.0281 3.09091 77.4684 2.80398C77.9116 2.5142 78.4286 2.36932 79.0195 2.36932C79.3604 2.36932 79.6971 2.42614 80.0295 2.53977C80.3619 2.65341 80.6644 2.83807 80.9371 3.09375C81.2099 3.34659 81.4272 3.68182 81.5891 4.09943C81.7511 4.51705 81.832 5.03125 81.832 5.64205V6.06818H77.0806C77.1033 6.76705 77.3008 7.30256 77.6729 7.67472C78.0479 8.04688 78.5309 8.23295 79.1218 8.23295C79.5167 8.23295 79.8562 8.14773 80.1403 7.97727C80.4244 7.80682 80.6303 7.55114 80.7582 7.21023L81.7298 7.48295C81.5763 7.97727 81.2695 8.37642 80.8093 8.6804C80.3491 8.98438 79.7866 9.13636 79.1218 9.13636ZM77.0806 5.19886H80.8093C80.8093 4.64489 80.6474 4.18608 80.3235 3.82244C79.9996 3.45597 79.565 3.27273 79.0195 3.27273C78.636 3.27273 78.3036 3.36222 78.0224 3.54119C77.7411 3.72017 77.5195 3.95739 77.3576 4.25284C77.1957 4.54545 77.1033 4.8608 77.0806 5.19886ZM89.396 9.13636C88.805 9.13636 88.2866 8.99574 87.8406 8.71449C87.3974 8.43324 87.0508 8.03977 86.8008 7.53409C86.5536 7.02841 86.43 6.4375 86.43 5.76136C86.43 5.07955 86.5536 4.48437 86.8008 3.97585C87.0508 3.46733 87.3974 3.07244 87.8406 2.79119C88.2866 2.50994 88.805 2.36932 89.396 2.36932C89.9869 2.36932 90.5039 2.50994 90.9471 2.79119C91.3931 3.07244 91.7397 3.46733 91.9869 3.97585C92.2369 4.48437 92.3619 5.07955 92.3619 5.76136C92.3619 6.4375 92.2369 7.02841 91.9869 7.53409C91.7397 8.03977 91.3931 8.43324 90.9471 8.71449C90.5039 8.99574 89.9869 9.13636 89.396 9.13636ZM89.396 8.23295C89.8448 8.23295 90.2141 8.1179 90.5039 7.88778C90.7937 7.65767 91.0082 7.35511 91.1474 6.98011C91.2866 6.60511 91.3562 6.19886 91.3562 5.76136C91.3562 5.32386 91.2866 4.91619 91.1474 4.53835C91.0082 4.16051 90.7937 3.85511 90.5039 3.62216C90.2141 3.3892 89.8448 3.27273 89.396 3.27273C88.9471 3.27273 88.5778 3.3892 88.288 3.62216C87.9982 3.85511 87.7837 4.16051 87.6445 4.53835C87.5053 4.91619 87.4357 5.32386 87.4357 5.76136C87.4357 6.19886 87.5053 6.60511 87.6445 6.98011C87.7837 7.35511 87.9982 7.65767 88.288 7.88778C88.5778 8.1179 88.9471 8.23295 89.396 8.23295ZM97.272 11.4545V2.45455H98.2436V3.49432H98.3629C98.4368 3.38068 98.5391 3.2358 98.6697 3.05966C98.8033 2.88068 98.9936 2.72159 99.2408 2.58239C99.4908 2.44034 99.8288 2.36932 100.255 2.36932C100.806 2.36932 101.292 2.5071 101.712 2.78267C102.133 3.05824 102.461 3.44886 102.697 3.95455C102.933 4.46023 103.05 5.05682 103.05 5.74432C103.05 6.4375 102.933 7.03835 102.697 7.54688C102.461 8.05256 102.134 8.4446 101.717 8.72301C101.299 8.99858 100.817 9.13636 100.272 9.13636C99.8516 9.13636 99.5149 9.06676 99.2621 8.92756C99.0092 8.78551 98.8146 8.625 98.6783 8.44602C98.5419 8.2642 98.4368 8.11364 98.3629 7.99432H98.2777V11.4545H97.272ZM98.2607 5.72727C98.2607 6.46875 98.4212 7.07244 98.7422 7.53835C99.0661 8.00142 99.5305 8.23295 100.136 8.23295C100.556 8.23295 100.907 8.12216 101.188 7.90057C101.472 7.67614 101.685 7.375 101.827 6.99716C101.972 6.61648 102.045 6.19318 102.045 5.72727C102.045 5.26705 101.974 4.85227 101.832 4.48295C101.692 4.1108 101.481 3.81676 101.197 3.60085C100.915 3.3821 100.562 3.27273 100.136 3.27273C99.522 3.27273 99.0561 3.49858 98.7379 3.95028C98.4197 4.40199 98.2607 4.99432 98.2607 5.72727ZM107.329 9.13636C106.698 9.13636 106.154 8.99716 105.697 8.71875C105.242 8.4375 104.891 8.04545 104.644 7.54261C104.4 7.03693 104.278 6.44886 104.278 5.77841C104.278 5.10795 104.4 4.51705 104.644 4.00568C104.891 3.49148 105.235 3.09091 105.675 2.80398C106.119 2.5142 106.636 2.36932 107.227 2.36932C107.567 2.36932 107.904 2.42614 108.237 2.53977C108.569 2.65341 108.871 2.83807 109.144 3.09375C109.417 3.34659 109.634 3.68182 109.796 4.09943C109.958 4.51705 110.039 5.03125 110.039 5.64205V6.06818H105.288C105.31 6.76705 105.508 7.30256 105.88 7.67472C106.255 8.04688 106.738 8.23295 107.329 8.23295C107.724 8.23295 108.063 8.14773 108.347 7.97727C108.631 7.80682 108.837 7.55114 108.965 7.21023L109.937 7.48295C109.783 7.97727 109.477 8.37642 109.016 8.6804C108.556 8.98438 107.994 9.13636 107.329 9.13636ZM105.288 5.19886H109.016C109.016 4.64489 108.854 4.18608 108.531 3.82244C108.207 3.45597 107.772 3.27273 107.227 3.27273C106.843 3.27273 106.511 3.36222 106.229 3.54119C105.948 3.72017 105.727 3.95739 105.565 4.25284C105.403 4.54545 105.31 4.8608 105.288 5.19886ZM111.569 9V2.45455H112.575V5.30114H113.239L115.592 2.45455H116.887L114.245 5.60795L116.921 9H115.626L113.478 6.23864H112.575V9H111.569ZM117.435 9V8.0625H117.673C117.935 8.0625 118.139 7.99006 118.287 7.84517C118.435 7.69744 118.544 7.42898 118.615 7.03977C118.686 6.64773 118.736 6.08523 118.764 5.35227L118.884 2.45455H123.247V9H122.241V3.39205H119.838L119.736 5.72727C119.705 6.44318 119.628 7.04403 119.506 7.52983C119.384 8.01562 119.185 8.3821 118.909 8.62926C118.636 8.87642 118.259 9 117.776 9H117.435ZM127.018 9.15341C126.604 9.15341 126.227 9.07528 125.889 8.91903C125.551 8.75994 125.283 8.53125 125.084 8.23295C124.885 7.93182 124.786 7.56818 124.786 7.14205C124.786 6.76705 124.859 6.46307 125.007 6.23011C125.155 5.99432 125.352 5.80966 125.599 5.67614C125.847 5.54261 126.119 5.44318 126.418 5.37784C126.719 5.30966 127.021 5.25568 127.325 5.21591C127.723 5.16477 128.045 5.12642 128.293 5.10085C128.543 5.07244 128.724 5.02557 128.838 4.96023C128.955 4.89489 129.013 4.78125 129.013 4.61932V4.58523C129.013 4.16477 128.898 3.83807 128.668 3.60511C128.44 3.37216 128.095 3.25568 127.632 3.25568C127.152 3.25568 126.776 3.3608 126.503 3.57102C126.23 3.78125 126.038 4.00568 125.928 4.24432L124.973 3.90341C125.143 3.50568 125.371 3.19602 125.655 2.97443C125.942 2.75 126.254 2.59375 126.592 2.50568C126.933 2.41477 127.268 2.36932 127.598 2.36932C127.808 2.36932 128.05 2.39489 128.322 2.44602C128.598 2.49432 128.864 2.59517 129.119 2.74858C129.378 2.90199 129.592 3.13352 129.763 3.44318C129.933 3.75284 130.018 4.16761 130.018 4.6875V9H129.013V8.11364H128.962C128.893 8.25568 128.78 8.40767 128.621 8.5696C128.462 8.73153 128.25 8.86932 127.986 8.98295C127.722 9.09659 127.399 9.15341 127.018 9.15341ZM127.172 8.25C127.57 8.25 127.905 8.17188 128.178 8.01562C128.453 7.85938 128.661 7.65767 128.8 7.41051C128.942 7.16335 129.013 6.90341 129.013 6.63068V5.71023C128.97 5.76136 128.876 5.80824 128.732 5.85085C128.589 5.89062 128.425 5.92614 128.237 5.95739C128.053 5.9858 127.872 6.01136 127.696 6.03409C127.523 6.05398 127.382 6.07102 127.274 6.08523C127.013 6.11932 126.768 6.17472 126.541 6.25142C126.317 6.32528 126.135 6.4375 125.996 6.58807C125.859 6.7358 125.791 6.9375 125.791 7.19318C125.791 7.54261 125.92 7.80682 126.179 7.9858C126.44 8.16193 126.771 8.25 127.172 8.25ZM135.434 7.63636L137.718 2.45455H139.013V9H138.007V3.9929L135.843 9H135.025L132.86 3.89915V9H131.854V2.45455H133.184L135.434 7.63636ZM143.598 9.13636C142.968 9.13636 142.424 8.99716 141.966 8.71875C141.512 8.4375 141.161 8.04545 140.914 7.54261C140.669 7.03693 140.547 6.44886 140.547 5.77841C140.547 5.10795 140.669 4.51705 140.914 4.00568C141.161 3.49148 141.505 3.09091 141.945 2.80398C142.388 2.5142 142.905 2.36932 143.496 2.36932C143.837 2.36932 144.174 2.42614 144.506 2.53977C144.838 2.65341 145.141 2.83807 145.414 3.09375C145.686 3.34659 145.904 3.68182 146.066 4.09943C146.228 4.51705 146.309 5.03125 146.309 5.64205V6.06818H141.557C141.58 6.76705 141.777 7.30256 142.15 7.67472C142.525 8.04688 143.007 8.23295 143.598 8.23295C143.993 8.23295 144.333 8.14773 144.617 7.97727C144.901 7.80682 145.107 7.55114 145.235 7.21023L146.206 7.48295C146.053 7.97727 145.746 8.37642 145.286 8.6804C144.826 8.98438 144.263 9.13636 143.598 9.13636ZM141.557 5.19886H145.286C145.286 4.64489 145.124 4.18608 144.8 3.82244C144.476 3.45597 144.042 3.27273 143.496 3.27273C143.113 3.27273 142.78 3.36222 142.499 3.54119C142.218 3.72017 141.996 3.95739 141.834 4.25284C141.672 4.54545 141.58 4.8608 141.557 5.19886ZM167.935 9V3.54545H168.745V4.36932H168.801C168.899 4.09943 169.077 3.88045 169.338 3.71236C169.598 3.54427 169.893 3.46023 170.222 3.46023C170.373 3.46023 170.506 3.47798 170.62 3.51349C170.733 3.54901 170.833 3.59754 170.918 3.65909L170.634 4.36932C170.575 4.33854 170.505 4.31487 170.424 4.2983C170.346 4.27936 170.255 4.26989 170.151 4.26989C169.753 4.26989 169.424 4.39181 169.164 4.63565C168.903 4.87713 168.773 5.18134 168.773 5.5483V9H167.935ZM173.894 9.11364C173.368 9.11364 172.915 8.99763 172.534 8.76562C172.155 8.53125 171.863 8.20455 171.657 7.78551C171.453 7.36411 171.351 6.87405 171.351 6.31534C171.351 5.75663 171.453 5.2642 171.657 4.83807C171.863 4.40956 172.149 4.07576 172.516 3.83665C172.885 3.59517 173.316 3.47443 173.809 3.47443C174.093 3.47443 174.373 3.52178 174.65 3.61648C174.927 3.71117 175.179 3.86506 175.407 4.07812C175.634 4.28883 175.815 4.56818 175.95 4.91619C176.085 5.2642 176.152 5.69271 176.152 6.2017V6.55682H172.193C172.212 7.1392 172.376 7.58546 172.686 7.8956C172.999 8.20573 173.401 8.3608 173.894 8.3608C174.223 8.3608 174.506 8.28977 174.743 8.14773C174.979 8.00568 175.151 7.79261 175.257 7.50852L176.067 7.7358C175.939 8.14773 175.684 8.48035 175.3 8.73366C174.917 8.98698 174.448 9.11364 173.894 9.11364ZM172.193 5.83239H175.3C175.3 5.37074 175.165 4.9884 174.895 4.68537C174.625 4.37997 174.263 4.22727 173.809 4.22727C173.489 4.22727 173.212 4.30185 172.978 4.45099C172.743 4.60014 172.559 4.79782 172.424 5.04403C172.289 5.28788 172.212 5.55066 172.193 5.83239ZM177.427 9V1.72727H178.265V5.97443H178.365L180.751 3.54545H181.788L179.483 5.875L181.958 9H180.893L178.851 6.41477L178.265 6.9581V9H177.427ZM183.705 1.72727V9H182.867V1.72727H183.705ZM186.845 9.12784C186.499 9.12784 186.185 9.06274 185.904 8.93253C185.622 8.79995 185.398 8.60938 185.233 8.3608C185.067 8.10985 184.984 7.80682 184.984 7.4517C184.984 7.1392 185.046 6.88589 185.169 6.69176C185.292 6.49527 185.456 6.34138 185.662 6.23011C185.868 6.11884 186.096 6.03598 186.344 5.98153C186.595 5.92472 186.847 5.87973 187.1 5.84659C187.432 5.80398 187.701 5.77202 187.907 5.75071C188.115 5.72704 188.266 5.68797 188.361 5.63352C188.458 5.57907 188.507 5.48437 188.507 5.34943V5.32102C188.507 4.97064 188.411 4.69839 188.219 4.50426C188.03 4.31013 187.742 4.21307 187.356 4.21307C186.956 4.21307 186.642 4.30066 186.415 4.47585C186.188 4.65104 186.028 4.83807 185.936 5.03693L185.14 4.75284C185.282 4.4214 185.472 4.16335 185.708 3.97869C185.948 3.79167 186.208 3.66146 186.49 3.58807C186.774 3.51231 187.053 3.47443 187.328 3.47443C187.503 3.47443 187.704 3.49574 187.931 3.53835C188.161 3.5786 188.382 3.66264 188.596 3.79048C188.811 3.91832 188.99 4.11127 189.132 4.36932C189.274 4.62737 189.345 4.97301 189.345 5.40625V9H188.507V8.26136H188.464C188.407 8.37973 188.313 8.50639 188.18 8.64134C188.047 8.77628 187.871 8.8911 187.651 8.9858C187.431 9.08049 187.162 9.12784 186.845 9.12784ZM186.973 8.375C187.304 8.375 187.583 8.3099 187.811 8.17969C188.04 8.04948 188.213 7.88139 188.329 7.67543C188.448 7.46946 188.507 7.25284 188.507 7.02557V6.25852C188.471 6.30114 188.393 6.3402 188.272 6.37571C188.154 6.40885 188.017 6.43845 187.86 6.46449C187.707 6.48816 187.556 6.50947 187.409 6.52841C187.265 6.54498 187.148 6.55919 187.058 6.57102C186.84 6.59943 186.636 6.6456 186.447 6.70952C186.26 6.77107 186.109 6.86458 185.993 6.99006C185.879 7.11316 185.822 7.28125 185.822 7.49432C185.822 7.78551 185.93 8.00568 186.145 8.15483C186.363 8.30161 186.639 8.375 186.973 8.375ZM190.874 9V3.54545H191.684V4.39773H191.755C191.869 4.10653 192.052 3.88045 192.306 3.71946C192.559 3.55611 192.863 3.47443 193.218 3.47443C193.578 3.47443 193.878 3.55611 194.117 3.71946C194.358 3.88045 194.546 4.10653 194.681 4.39773H194.738C194.878 4.116 195.087 3.89228 195.367 3.72656C195.646 3.55848 195.981 3.47443 196.372 3.47443C196.859 3.47443 197.258 3.62713 197.568 3.93253C197.878 4.23556 198.034 4.70786 198.034 5.34943V9H197.195V5.34943C197.195 4.94697 197.085 4.65933 196.865 4.48651C196.645 4.31368 196.386 4.22727 196.088 4.22727C195.704 4.22727 195.407 4.34328 195.196 4.57528C194.985 4.80492 194.88 5.09612 194.88 5.44886V9H194.028V5.2642C194.028 4.95407 193.927 4.70431 193.726 4.51491C193.525 4.32315 193.266 4.22727 192.948 4.22727C192.731 4.22727 192.527 4.28527 192.338 4.40128C192.151 4.51728 191.999 4.67827 191.883 4.88423C191.769 5.08783 191.713 5.32339 191.713 5.59091V9H190.874ZM201.171 9.12784C200.825 9.12784 200.512 9.06274 200.23 8.93253C199.948 8.79995 199.724 8.60938 199.559 8.3608C199.393 8.10985 199.31 7.80682 199.31 7.4517C199.31 7.1392 199.372 6.88589 199.495 6.69176C199.618 6.49527 199.782 6.34138 199.988 6.23011C200.194 6.11884 200.422 6.03598 200.67 5.98153C200.921 5.92472 201.173 5.87973 201.427 5.84659C201.758 5.80398 202.027 5.77202 202.233 5.75071C202.441 5.72704 202.593 5.68797 202.687 5.63352C202.784 5.57907 202.833 5.48437 202.833 5.34943V5.32102C202.833 4.97064 202.737 4.69839 202.545 4.50426C202.356 4.31013 202.068 4.21307 201.682 4.21307C201.282 4.21307 200.969 4.30066 200.741 4.47585C200.514 4.65104 200.354 4.83807 200.262 5.03693L199.466 4.75284C199.608 4.4214 199.798 4.16335 200.035 3.97869C200.274 3.79167 200.534 3.66146 200.816 3.58807C201.1 3.51231 201.379 3.47443 201.654 3.47443C201.829 3.47443 202.03 3.49574 202.258 3.53835C202.487 3.5786 202.709 3.66264 202.922 3.79048C203.137 3.91832 203.316 4.11127 203.458 4.36932C203.6 4.62737 203.671 4.97301 203.671 5.40625V9H202.833V8.26136H202.79C202.733 8.37973 202.639 8.50639 202.506 8.64134C202.374 8.77628 202.197 8.8911 201.977 8.9858C201.757 9.08049 201.488 9.12784 201.171 9.12784ZM201.299 8.375C201.63 8.375 201.91 8.3099 202.137 8.17969C202.367 8.04948 202.539 7.88139 202.655 7.67543C202.774 7.46946 202.833 7.25284 202.833 7.02557V6.25852C202.797 6.30114 202.719 6.3402 202.599 6.37571C202.48 6.40885 202.343 6.43845 202.187 6.46449C202.033 6.48816 201.882 6.50947 201.736 6.52841C201.591 6.54498 201.474 6.55919 201.384 6.57102C201.166 6.59943 200.963 6.6456 200.773 6.70952C200.586 6.77107 200.435 6.86458 200.319 6.99006C200.205 7.11316 200.148 7.28125 200.148 7.49432C200.148 7.78551 200.256 8.00568 200.471 8.15483C200.689 8.30161 200.965 8.375 201.299 8.375ZM205.811 9.05682C205.636 9.05682 205.486 8.99408 205.36 8.86861C205.235 8.74313 205.172 8.5928 205.172 8.41761C205.172 8.24242 205.235 8.09209 205.36 7.96662C205.486 7.84115 205.636 7.77841 205.811 7.77841C205.987 7.77841 206.137 7.84115 206.262 7.96662C206.388 8.09209 206.451 8.24242 206.451 8.41761C206.451 8.5928 206.388 8.74313 206.262 8.86861C206.137 8.99408 205.987 9.05682 205.811 9.05682ZM207.955 9V3.54545H208.764V4.36932H208.821C208.92 4.09943 209.1 3.88045 209.361 3.71236C209.621 3.54427 209.915 3.46023 210.241 3.46023C210.303 3.46023 210.38 3.46141 210.472 3.46378C210.565 3.46615 210.634 3.4697 210.682 3.47443V4.3267C210.653 4.3196 210.588 4.30895 210.487 4.29474C210.387 4.27817 210.282 4.26989 210.17 4.26989C209.773 4.26989 209.444 4.39062 209.183 4.6321C208.923 4.87358 208.793 5.17898 208.793 5.5483V9H207.955ZM215.113 6.76989V3.54545H215.951V9H215.113V8.0767H215.056C214.928 8.35369 214.729 8.58925 214.459 8.78338C214.189 8.97514 213.849 9.07102 213.437 9.07102C212.925 9.07102 212.504 8.90175 212.172 8.56321C211.841 8.22467 211.675 7.70739 211.675 7.01136V3.54545H212.513V6.95455C212.513 7.35227 212.625 7.66951 212.847 7.90625C213.072 8.14299 213.358 8.26136 213.706 8.26136C213.915 8.26136 214.127 8.2081 214.342 8.10156C214.56 7.99503 214.742 7.83168 214.889 7.61151C215.038 7.39134 215.113 7.1108 215.113 6.76989Z" fill="white"/>
</svg>
