<svg xmlns="http://www.w3.org/2000/svg" viewBox="0 0 208.54 112.27">
  <defs>
    <linearGradient id="Золото" x2="208.54" y1="56.13" y2="56.13" gradientUnits="userSpaceOnUse">
      <stop offset="0" stop-color="#9e7e39"/>
      <stop offset=".19" stop-color="#9e7e39"/>
      <stop offset=".27" stop-color="#baa058"/>
      <stop offset=".39" stop-color="#ddcb7e"/>
      <stop offset=".44" stop-color="#eadb8d"/>
      <stop offset=".51" stop-color="#dac87c"/>
      <stop offset=".64" stop-color="#b2974f"/>
      <stop offset=".7" stop-color="#9e7e39"/>
    </linearGradient>
  </defs>
  <g id="Layer_2" data-name="Layer 2">
    <path id="Слой_1" fill="url(#Золото)" d="M80.47 22H77.2v-4.45h-4.83L70.58 22h-3.5l9.5-22h3.21zm-3.27-7.37L77.26 5l-3.71 9.59zM82.36 22l4.39-22H90l-4.36 22zm8.35 0L88 10.7 94.7 0h3.65l-7 10.67L94.3 22zm5.6 0l4.39-22h3.3l-3.81 19.08h4.09L108.09 0h3.28l-3.8 19.08h1.7l-1.46 7.3h-3.15l.86-4.36zm14.87 0l4.4-22h3.27l-2.66 13.24L123.68 0h2.78l-4.39 22h-3.28l2.63-13.21L114.06 22zm13.39 0l5.29-9.9a3.77 3.77 0 01-1.61-3.49 11.72 11.72 0 01.28-2.13q.78-3.9 2.2-5.2A6.38 6.38 0 01135.15 0h5.29L136 22h-3.28l1.85-9.15h-1.73L128.16 22zm7.24-15.5a8.78 8.78 0 00-.22 1.7 2 2 0 00.41 1.42 2 2 0 001.42.43h1.7l1.42-7.11h-1.76a2.44 2.44 0 00-1.95.77 6.57 6.57 0 00-1.02 2.79zM22.79 52h-3.27v-4.45h-4.83L12.9 52H9.4l9.5-22h3.21zm-3.27-7.39l.06-9.61-3.71 9.59zM24.68 52l4.39-22h5.17A4.18 4.18 0 0138 31.82a5.64 5.64 0 01.74 3 43.67 43.67 0 01-1 6.19 68.32 68.32 0 01-1.56 6.57 6.77 6.77 0 01-1.66 2.86A6 6 0 0130.15 52zm3.87-2.94h1.85a2.39 2.39 0 002-.86 6.47 6.47 0 001-2.29q.44-1.6 1.11-5a38.21 38.21 0 001-6.19 2 2 0 00-.51-1.26 1.58 1.58 0 00-1.3-.52h-1.94zM38.5 52l4.4-22h5.16q4.45 0 4.45 4a13.72 13.72 0 01-.27 2.51 12 12 0 01-1.36 3.94 5.16 5.16 0 01-2.26 1.87L49.79 52h-3.28l-1-9.12h-1.9L41.78 52zm5.66-12h2c1.43 0 2.36-1.18 2.82-3.55a10.59 10.59 0 00.21-1.77c0-1.19-.57-1.79-1.73-1.79h-1.87zm8.32 12l4.4-22h8.78l-.59 2.94h-5.5l-1.3 6.52H63l-.59 2.91h-4.73l-1.33 6.71h5.5L61.27 52zm11.6 0l4.39-22h2.76l2.22 13.33L76 30h3.28l-4.4 22h-2.63L70 38.69 67.36 52zm26.07 0h-3.28v-4.45h-4.82L80.26 52h-3.5l9.5-22h3.21zm-3.28-7.39l.07-9.61-3.72 9.59zM92 52l4.39-22h3.28l-3.8 19.08h5.5l-.55 2.92zm11.19 0l4.4-22h3.27l-4.39 22zm6.81 0l4.39-22h2.75l2.23 13.33L121.92 30h3.27l-4.39 22h-2.63L116 38.69 113.29 52zm14.25 0l4.4-22h8.78l-.59 2.94h-5.5l-1.3 6.52h4.73l-.59 2.91h-4.73l-1.33 6.71h5.51l-.58 2.92zm16.83 0l4.39-22h5.17q4.46 0 4.45 4a13 13 0 01-.28 2.51 11.77 11.77 0 01-1.36 3.94 5.16 5.16 0 01-2.26 1.87l1.19 9.68h-3.28l-1-9.12h-1.92L144.37 52zm5.66-12h2q2.13 0 2.81-3.55a9.82 9.82 0 00.22-1.77 1.56 1.56 0 00-1.77-1.74h-1.86zm9.26 6.36L159.31 30h3.27l-3.34 16.64a5 5 0 00-.09 1 1.51 1.51 0 001.67 1.73 2.23 2.23 0 001.61-.66 3.44 3.44 0 00.9-1.85L166.67 30h3.27l-3.34 16.86a7.08 7.08 0 01-2.13 4 5.84 5.84 0 01-4.08 1.36 4.53 4.53 0 01-3.47-1.33 4.12 4.12 0 01-1-3 6.74 6.74 0 01.08-1.53zm13.36-.36h3.28a8.5 8.5 0 00-.19 1.55 1.69 1.69 0 00.37 1.2 1.64 1.64 0 001.33.56 2.4 2.4 0 001.67-.62 2.62 2.62 0 00.64-.9 11.14 11.14 0 00.44-1.6 8.77 8.77 0 00.22-2 2.12 2.12 0 00-1.48-1.92l-2-1a3.65 3.65 0 01-2.28-3.46 11.82 11.82 0 01.24-2.42 8 8 0 011.95-4.2 5.4 5.4 0 014-1.52 5 5 0 013.68 1.33 3.63 3.63 0 01.87 2.66 14 14 0 01-.22 2.23h-3.28a7.33 7.33 0 00.19-1.61 2 2 0 00-.34-1.21 1.32 1.32 0 00-1.12-.46 2 2 0 00-1.45.56 4.18 4.18 0 00-1 2.22 7.84 7.84 0 00-.15 1.49 1.88 1.88 0 001.2 1.76l1.77.84a6.12 6.12 0 012.21 1.61 3.46 3.46 0 01.63 2.16 14.57 14.57 0 01-.31 2.91 14.79 14.79 0 01-.8 2.84 5.13 5.13 0 01-1.18 1.7 5.94 5.94 0 01-4.33 1.46 4.93 4.93 0 01-3.77-1.3 3.77 3.77 0 01-1-2.69 13.36 13.36 0 01.21-2.17zm12.43 6l4.39-22h3.28l-1.86 9.37h4.09l1.88-9.37h3.28l-4.39 22h-3.28l1.95-9.74H187L185 52zM47.09 82l4.39-22h4.89c1.75 0 3 .44 3.68 1.33a4.16 4.16 0 01.8 2.63A9.53 9.53 0 0160.6 66a11.15 11.15 0 01-.6 2.29 3.93 3.93 0 01-1.11 1.48 3.84 3.84 0 01-1.24.78 2 2 0 011 .8 3.43 3.43 0 01.62 2.07 11.05 11.05 0 01-.27 2.29q-.7 3.62-2.22 5a4.42 4.42 0 01-1.81 1 10 10 0 01-2.65.28zM51 79.08h1.61a2.68 2.68 0 002.09-.77 6 6 0 001.1-2.72 9.53 9.53 0 00.13-1.59 1.78 1.78 0 00-2-2h-1.55zm2-9.93h1.39a2.58 2.58 0 002-.72 4.77 4.77 0 001-2.34 5.79 5.79 0 00.19-1.42 1.76 1.76 0 00-.42-1.31 2 2 0 00-1.44-.42h-1.55zM66.11 82l4.39-22h3l1.7 11.38L81.51 60h3l-4.42 22h-3.28l2.72-13.67L75 77.1h-1.87l-1-8.81L69.39 82zm29.25 0h-3.27v-4.45h-4.83L85.47 82H82l9.5-22h3.21zm-3.27-7.39l.06-9.61-3.71 9.59zM97.25 82l4.39-22h8.63l-.59 2.94h-5.35L100.53 82zm11 0l4.39-22h3.28l-1.85 9.37h4.08L120 60h3.28l-4.39 22h-3.28l1.95-9.74h-4.11L111.54 82zm14.13 0l4.4-22h3.27l-2.65 13.24L134.89 60h2.78l-4.39 22H130l2.63-13.21L125.27 82zm16.73 0l3.81-19.08h-3.5L140 60h10.27l-.59 2.94h-3.49L142.4 82zm9.1 0l4.39-22h8.78l-.59 2.94h-5.5L154 69.46h4.73l-.58 2.91h-4.74l-1.33 6.71h5.51L157 82zM3.15 111.19L0 103.48l6.25-7.67-1 4.8-2.6 3.09 1.36 3.06zm5.36 0l-3.16-7.71 6.25-7.67-1 4.8L8 103.7l1.36 3.06zm2.93.83l4.39-22h4.89c1.75 0 3 .44 3.68 1.33a4.11 4.11 0 01.81 2.65 10.19 10.19 0 01-.21 2 11.85 11.85 0 01-.62 2.26 4.15 4.15 0 01-1.11 1.48 4 4 0 01-1.24.78 2 2 0 011 .8 3.5 3.5 0 01.62 2.07 11.78 11.78 0 01-.25 2.29c-.47 2.41-1.22 4.09-2.23 5a4.36 4.36 0 01-1.81 1 10 10 0 01-2.64.28zm3.87-2.94h1.61a2.66 2.66 0 002.08-.77 5.93 5.93 0 001.1-2.72 8.76 8.76 0 00.19-1.64 1.78 1.78 0 00-2-2h-1.56zm2-9.93h1.39a2.58 2.58 0 002-.72 5 5 0 001-2.34 6.32 6.32 0 00.19-1.42 1.76 1.76 0 00-.42-1.31 2 2 0 00-1.47-.42h-1.47zm8.63 8.32a41.83 41.83 0 01.92-6.46 53 53 0 011.68-6.79 7.8 7.8 0 011.73-2.92 5.52 5.52 0 014.08-1.55A4.41 4.41 0 0138 91.21a4.82 4.82 0 01.93 3.09 7.91 7.91 0 01-.1 1.42h-3.29a6.78 6.78 0 00.09-1.24c0-1.19-.52-1.79-1.55-1.79a2.11 2.11 0 00-1.58.65 5.41 5.41 0 00-1.09 2.12Q31 96.9 30.12 101a39.91 39.91 0 00-.92 6.43c0 1.26.52 1.89 1.57 1.89a2.09 2.09 0 001.7-.8 5 5 0 001-2.26h3.33a8.48 8.48 0 01-2.41 4.74 5.75 5.75 0 01-3.93 1.27 4.13 4.13 0 01-3.8-1.77 5.71 5.71 0 01-.74-3.03zM38.29 112l4.39-22h8.78l-.58 2.94h-5.51l-1.3 6.52h4.73l-.58 2.91h-4.74l-1.33 6.71h5.51l-.59 2.92zm5.13-23.69l.58-3.04h2.91l-.59 3.06zm5.11 0l.58-3.06H52l-.59 3.06zm9 23.69l3.77-19.06h-3.5l.59-2.94h10.27l-.59 2.94h-3.49L60.77 112zm9.1 0L71 90h3.28l-1.71 8.57h1.74a4.84 4.84 0 013.55 1.17 4.07 4.07 0 011 3 14.13 14.13 0 01-.24 2.57q-.78 3.87-2.29 5.29a5.89 5.89 0 01-4.21 1.4zm3.86-2.94h1.83a2.37 2.37 0 001.94-.83 7.08 7.08 0 001.12-2.94 9.67 9.67 0 00.21-2 2 2 0 00-.41-1.41 1.91 1.91 0 00-1.44-.44H72zm8.6 2.94l4.39-22h3.28l-4.39 22zm12 0l4.39-22h3l1.73 11.38L106.42 90h3L105 112h-3.28l2.72-13.67-4.58 8.75H98l-1-8.81L94.3 112zm19.08-11a64.81 64.81 0 011.69-6.85 7.18 7.18 0 011.71-2.89 5.58 5.58 0 014.08-1.52 4.11 4.11 0 013.87 1.83 5.26 5.26 0 01.74 2.94 37.88 37.88 0 01-1 6.49 59.09 59.09 0 01-1.67 6.85 7.32 7.32 0 01-1.73 2.89 5.48 5.48 0 01-4 1.52c-1.88 0-3.17-.61-3.9-1.83a5.61 5.61 0 01-.71-2.94 40.9 40.9 0 01.85-6.49zm7.86 0a42.1 42.1 0 001-6.4c0-1.28-.54-1.92-1.63-1.92a2.12 2.12 0 00-1.55.65 5.22 5.22 0 00-1.08 2.13c-.31 1-.74 2.86-1.27 5.54a41.25 41.25 0 00-1 6.4c0 1.28.55 1.92 1.64 1.92a2.14 2.14 0 001.55-.65 5.22 5.22 0 001.08-2.13q.39-1.54 1.23-5.54zm1.63 11l7.8-12-2.57-10h3.34l2.54 10.55-7.4 11.45zm8.88 0l4.39-22h3.28l-4.39 22zm8.32 0l-2.69-11.41L140.75 90h3.74l-7 10.76 2.73 11.24zm5.47 0l4.4-22h8.78l-.59 2.94h-5.5l-1.3 6.52h4.73l-.59 2.91h-4.73l-1.33 6.71h5.51l-.59 2.94zm11.6 0l4.39-22h3.28l-3.8 19.08h3.62L165.15 90h3.28l-3.81 19.08h3.62L172.05 90h3.28l-4.4 22zm20.57 0l4.39-22h3.28l-1.7 8.57h1.73a4.86 4.86 0 013.56 1.17 4.07 4.07 0 011 3 14.16 14.16 0 01-.25 2.57q-.78 3.87-2.29 5.29A5.89 5.89 0 01180 112zm3.86-2.94h1.83a2.4 2.4 0 001.95-.83 7.24 7.24 0 001.11-2.94 9 9 0 00.22-2A2 2 0 00183 102a1.91 1.91 0 00-1.44-.44h-1.73zm12.5-13.27l3.15 7.71-6.24 7.67 1-4.8 2.59-3.09-1.36-3.06zm5.35 0l3.15 7.71-6.24 7.67 1-4.8 2.59-3.09-1.36-3.06zm4.41 16.21l.75-3.77h3.55l-.74 3.77zm1.55-6.12L205 90h3.52l-3.28 15.9z" data-name="Слой 1"/>
  </g>
</svg>
