<svg xmlns="http://www.w3.org/2000/svg" viewBox="0 0 184.13 82.09">
  <defs>
    <linearGradient id="Золото" x1="4.24" x2="178.86" y1="17.49" y2="64.28" gradientUnits="userSpaceOnUse">
      <stop offset="0" stop-color="#9e7e39"/>
      <stop offset=".19" stop-color="#9e7e39"/>
      <stop offset=".27" stop-color="#baa058"/>
      <stop offset=".39" stop-color="#ddcb7e"/>
      <stop offset=".44" stop-color="#eadb8d"/>
      <stop offset=".51" stop-color="#dac87c"/>
      <stop offset=".64" stop-color="#b2974f"/>
      <stop offset=".7" stop-color="#9e7e39"/>
    </linearGradient>
  </defs>
  <g id="Layer_2" data-name="Layer 2">
    <path id="Слой_1" fill="url(#Золото)" d="M5.2 17.68a41.59 41.59 0 01.92-6.45 54.76 54.76 0 011.67-6.77 7.8 7.8 0 011.73-2.92A5.5 5.5 0 0113.59 0a4.39 4.39 0 013.64 1.45 4.82 4.82 0 01.93 3.09A9.22 9.22 0 0118.07 6H14.8a6.78 6.78 0 00.09-1.24c0-1.19-.52-1.79-1.54-1.79a2.1 2.1 0 00-1.58.65 5.3 5.3 0 00-1.09 2.11q-.45 1.44-1.28 5.54a40.22 40.22 0 00-.93 6.42c0 1.26.53 1.88 1.57 1.88a2.06 2.06 0 001.7-.8 5.11 5.11 0 001-2.25h3.3a8.44 8.44 0 01-2.41 4.72 5.75 5.75 0 01-3.91 1.27 4.15 4.15 0 01-3.8-1.76 5.74 5.74 0 01-.72-3.07zm19.1 4.54l4.38-22H32l-4.38 22zm8.33 0l-2.74-11.3L36.61.25h3.64l-7 10.64 2.93 11.33zm6.36 0l4.38-22h8.77l-.59 2.93h-5.49l-1.3 6.51h4.72l-.59 2.9h-4.72l-1.32 6.7h5.49l-.59 2.93zm12.34 0l4.38-22h3l1.7 11.38L66.7.25h3l-4.38 22H62l2.73-13.67-4.57 8.73h-1.82l-1-8.79-2.74 13.7zm24.88-4.54a40.35 40.35 0 01.92-6.45 53 53 0 011.67-6.77 7.8 7.8 0 011.73-2.92A5.47 5.47 0 0184.6 0a4.4 4.4 0 013.64 1.45 4.82 4.82 0 01.93 3.09 8 8 0 01-.1 1.46H85.8a6.78 6.78 0 00.09-1.24c0-1.19-.51-1.79-1.54-1.79a2.07 2.07 0 00-1.57.65 5.44 5.44 0 00-1.1 2.11 75 75 0 00-1.28 5.54 39.83 39.83 0 00-.92 6.42c0 1.26.52 1.88 1.57 1.88a2.06 2.06 0 001.7-.8 5.11 5.11 0 001-2.25h3.3a8.57 8.57 0 01-2.41 4.72 5.77 5.77 0 01-3.92 1.27 4.13 4.13 0 01-3.72-1.8 5.65 5.65 0 01-.79-3.03zm13.11 4.54L93.7.25h8.77l-.59 2.93h-5.49l-1.3 6.51h4.72l-.58 2.9H94.5l-1.32 6.7h5.49l-.59 2.93zm12.34 0l4.39-22h8.61l-.59 2.93h-5.34l-3.8 19zm13.4-11a67.48 67.48 0 011.68-6.83 7.18 7.18 0 011.71-2.89 5.57 5.57 0 014.07-1.5 4.11 4.11 0 013.86 1.82 5.24 5.24 0 01.74 2.93 38.26 38.26 0 01-1 6.48 61 61 0 01-1.67 6.84 7.35 7.35 0 01-1.68 2.93 5.47 5.47 0 01-4 1.52c-1.87 0-3.17-.61-3.89-1.83a5.58 5.58 0 01-.71-2.93 40.68 40.68 0 01.89-6.53zm7.83 0a41 41 0 001-6.39c0-1.27-.54-1.91-1.63-1.91a2.12 2.12 0 00-1.55.65 5.22 5.22 0 00-1.08 2.13q-.47 1.51-1.26 5.52a41 41 0 00-1 6.39c0 1.28.55 1.91 1.64 1.91a2.11 2.11 0 001.54-.64 5.36 5.36 0 001.08-2.13q.47-1.5 1.26-5.52zm3.37 8.06h1.39a37.91 37.91 0 003.95-11.16l1.57-7.87h9.91l-3.8 19H141l-1.42 7.09h-3.12l.87-4.16h-8.52l-.81 4.2h-3.09zm4.75 0h5l3.21-16.11h-3.46l-1.23 6.14a35.08 35.08 0 01-3.53 9.98zm12.68 2.93l4.39-22h3.27l-1.86 9.39h4.08l1.88-9.35h3.27l-4.38 22h-3.27L153 12.5h-4.1l-1.9 9.72zm13.92 0l5.28-9.88a3.75 3.75 0 01-1.61-3.48 11.72 11.72 0 01.28-2.13c.51-2.6 1.24-4.32 2.19-5.19a6.42 6.42 0 014.41-1.28h5.28l-4.41 22h-3.27l1.85-9.14h-1.73l-4.69 9.14zm7.22-15.49a8.66 8.66 0 00-.21 1.69 1.93 1.93 0 00.43 1.42 2 2 0 001.42.44h1.69l1.42-7.1h-1.76a2.4 2.4 0 00-1.94.77 6.51 6.51 0 00-1.05 2.79zM0 52l3.8-19H.31l.59-2.94h10.24L10.55 33H7.07l-3.8 19zm9.84 0l4.39-22h3.27l-1.7 8.55h1.73a4.85 4.85 0 013.55 1.17 4.06 4.06 0 011 3 14 14 0 01-.25 2.56c-.52 2.58-1.28 4.33-2.29 5.28A5.84 5.84 0 0115.37 52zm3.86-2.9h1.82a2.4 2.4 0 001.95-.83 7.24 7.24 0 001.11-2.94 9.58 9.58 0 00.21-1.94 2 2 0 00-.41-1.4 1.91 1.91 0 00-1.44-.45h-1.73zm8.58 2.9l4.38-22h3.27l-4.38 22zm13.48 0l4.39-22h10.64l-4.38 22h-3.27l3.8-19h-4.11L39 52zm13.52 0l.59-2.93h.31a2.76 2.76 0 002.37-1.39 17.08 17.08 0 001.73-5.46l2.47-12.19h9.94L62.3 52H59l3.8-19h-3.49l-1.88 9.38a40.25 40.25 0 01-1.27 5.05 8.78 8.78 0 01-1.54 2.93 4.48 4.48 0 01-1.85 1.36 8.17 8.17 0 01-2.5.32zm29 0h-3.23v-4.44h-4.82L68.44 52H65l9.47-22h3.21zm-3.27-7.38l.06-9.56-3.7 9.56zM81 52l4.38-22h3.28l-1.86 9.35h4.08L92.76 30H96l-4.38 22h-3.27l1.94-9.72h-4.1l-2 9.72zm14.88 0l4.38-22h3.27l-2.65 13.21L108.34 30h2.78l-4.38 22h-3.27l2.62-13.18L98.72 52zm15.09 0l4.38-22h5a4.87 4.87 0 013.55 1.14 4.1 4.1 0 011 3 14.28 14.28 0 01-.24 2.56q-.78 3.87-2.29 5.28a5.86 5.86 0 01-4.19 1.42h-2.28l-1.69 8.6zm5.55-11.51h1.79a2.38 2.38 0 002-.85 6.85 6.85 0 001.1-2.92 10.74 10.74 0 00.24-1.91A1.6 1.6 0 00119.7 33H118zM124.67 52l.55-2.93a3.75 3.75 0 002.1-.48 4 4 0 001.27-1.77l.86-2-1.57-14.81h3.33l.59 10.37 4.72-10.37H140l-8.88 17.79a9.54 9.54 0 01-2.44 3.46 7.51 7.51 0 01-4.01.74zm13.58 0l4.38-22h8.76l-.58 3h-5.5L144 39.5h4.72l-.59 2.9h-4.72l-1.33 6.7h5.5L147 52zm12.34 0l4.38-22h3.27l-3.79 19h3.61l3.79-19h3.27l-3.79 19h3.61l3.79-19H172l-4.39 22zm21.29 0l4.38-22h3.28l-1.7 8.55h1.73a4.81 4.81 0 013.54 1.17 4.06 4.06 0 011 3 13.94 13.94 0 01-.24 2.56c-.52 2.58-1.28 4.33-2.29 5.28a5.86 5.86 0 01-4.17 1.44zm3.86-2.93h1.82a2.37 2.37 0 001.94-.83 7.08 7.08 0 001.12-2.94 9.58 9.58 0 00.21-1.94 2 2 0 00-.42-1.4 1.87 1.87 0 00-1.43-.45h-1.73zM10.82 81.84l4.38-22h4.87c1.75 0 3 .44 3.68 1.33a4.13 4.13 0 01.8 2.62 10.19 10.19 0 01-.25 2.07 11 11 0 01-.62 2.25 3.93 3.93 0 01-1.11 1.48 3.71 3.71 0 01-1.23.77 2.07 2.07 0 011 .81 3.44 3.44 0 01.61 2.06 11.82 11.82 0 01-.24 2.29q-.72 3.6-2.23 5a4.41 4.41 0 01-1.8 1 10 10 0 01-2.64.28zm3.85-2.93h1.61a2.67 2.67 0 002.08-.77 6 6 0 001.1-2.72 9.44 9.44 0 00.18-1.63 1.78 1.78 0 00-2-2h-1.55zm2-9.91H18a2.58 2.58 0 002-.72A4.92 4.92 0 0021 66a6.27 6.27 0 00.18-1.42 1.78 1.78 0 00-.41-1.31 2 2 0 00-1.44-.42h-1.45zM26 77.31a41.28 41.28 0 011-6.45 55.05 55.05 0 011.67-6.78 7.83 7.83 0 011.73-2.91 5.51 5.51 0 014.07-1.55 4.42 4.42 0 013.64 1.45 4.84 4.84 0 01.89 3.09 9.13 9.13 0 01-.09 1.42h-3.28a6.78 6.78 0 00.09-1.24c0-1.19-.52-1.79-1.54-1.79a2.1 2.1 0 00-1.58.65 5.36 5.36 0 00-1.09 2.12q-.45 1.43-1.28 5.54a40 40 0 00-.93 6.41c0 1.26.52 1.89 1.57 1.89a2.07 2.07 0 001.7-.81 5.11 5.11 0 001-2.25h3.3a8.41 8.41 0 01-2.41 4.72 5.7 5.7 0 01-3.91 1.27 4.15 4.15 0 01-3.8-1.76 5.7 5.7 0 01-.75-3.02zm15.18 4.53l3.8-19h-3.46l.59-2.93h10.24l-.58 2.93h-3.49l-3.8 19zm9.85 0l4.38-22h5A4.83 4.83 0 0164 61a4.07 4.07 0 011 3 14.45 14.45 0 01-.24 2.56q-.78 3.86-2.29 5.27a5.86 5.86 0 01-4.19 1.42H56l-1.69 8.58zm5.55-11.51h1.82a2.38 2.38 0 002-.85 6.73 6.73 0 001.09-2.91 10.13 10.13 0 00.25-1.92 1.6 1.6 0 00-1.88-1.85h-1.7zm8.61 11.51l4.38-22h8.77l-.59 2.93h-5.46L71 69.31h4.72l-.58 2.9H70.4l-1.32 6.7h5.49L74 81.84zm14.72 0l3.8-19h-3.46l.58-2.93h10.25l-.59 2.93H87l-3.8 19zm9.84 0l4.39-22h3.27l-2.63 13.24 7.47-13.21H105l-4.38 22h-3.25L100 68.66l-7.35 13.18zm17.47 0l3.79-19h-3.48l.58-2.93h10.25l-.59 2.93h-3.48l-3.8 19zm9.84 0l4.38-22h3.28l-1.7 8.55h1.73a4.85 4.85 0 013.55 1.17 4.1 4.1 0 011 3 14.13 14.13 0 01-.24 2.57q-.78 3.85-2.29 5.27a5.84 5.84 0 01-4.19 1.42zm3.94-2.93h1.82a2.4 2.4 0 002-.83 7.25 7.25 0 001.11-2.93 9.67 9.67 0 00.21-2 2 2 0 00-.41-1.4 1.91 1.91 0 00-1.44-.45h-1.73zm11.11-1.6a40.45 40.45 0 01.93-6.45 53.71 53.71 0 011.66-6.78 7.83 7.83 0 011.73-2.91 5.51 5.51 0 014.07-1.55 4.42 4.42 0 013.64 1.45 4.84 4.84 0 01.93 3.09 9.13 9.13 0 01-.09 1.42h-3.27a6.78 6.78 0 00.09-1.24c0-1.19-.52-1.79-1.54-1.79a2.1 2.1 0 00-1.58.65 5.36 5.36 0 00-1.09 2.12q-.45 1.43-1.28 5.54a40 40 0 00-.93 6.41c0 1.26.52 1.89 1.57 1.89a2.07 2.07 0 001.7-.81 5.11 5.11 0 001-2.25h3.3a8.41 8.41 0 01-2.41 4.72 5.7 5.7 0 01-3.91 1.27 4.15 4.15 0 01-3.8-1.76 5.7 5.7 0 01-.77-3.02zm12 4.53l5.23-9.84a3.76 3.76 0 01-1.6-3.49 11.75 11.75 0 01.27-2.13q.78-3.88 2.19-5.18a6.38 6.38 0 014.42-1.3h5.27l-4.41 22h-3.27l1.85-9.13h-1.73l-4.69 9.13zm7.22-15.49a8.75 8.75 0 00-.21 1.7 1.57 1.57 0 001.85 1.85h1.7l1.33-7.1h-1.76a2.42 2.42 0 00-1.95.77 6.57 6.57 0 00-1.01 2.78zm11.55 15.49l.74-3.76h3.55l-.74 3.76zm1.38-6.11l.44-2.19a6.21 6.21 0 011.6-2.9l2.1-2.35a5.63 5.63 0 001.33-2.71 11.56 11.56 0 00.18-1.54 1.56 1.56 0 00-.37-1.15 1.42 1.42 0 00-1.11-.46A2.11 2.11 0 00167 63a4.72 4.72 0 00-1 2.5h-3.05q.68-3.4 2.1-4.57a5.4 5.4 0 013.67-1.24 3.69 3.69 0 014.28 3.88 10.57 10.57 0 01-.22 2.1 8.31 8.31 0 01-1.88 4l-2.07 2.29a4.1 4.1 0 00-1.11 2l-.37 1.82z" data-name="Слой 1"/>
  </g>
</svg>
