<svg xmlns="http://www.w3.org/2000/svg" viewBox="0 0 20.67 20.67">
  <g id="Layer_2" data-name="Layer 2">
    <path id="Слой_1" fill="#898989" d="M10.34 20.67a10.34 10.34 0 1110.33-10.33 10.35 10.35 0 01-10.33 10.33zm0-19.4a9.07 9.07 0 109.06 9.07 9.08 9.08 0 00-9.06-9.07zM8.78 7.64c0-1-.54-1.8-1.2-1.8s-1.2.81-1.2 1.8.54 1.8 1.2 1.8 1.2-.81 1.2-1.8zm6 0c0-1-.54-1.8-1.2-1.8s-1.2.81-1.2 1.8.54 1.8 1.2 1.8 1.17-.81 1.17-1.8zm.64 3.48a30.37 30.37 0 01-5.05.41 30.37 30.37 0 01-5-.41.47.47 0 00-.53.58 5.75 5.75 0 0011.15 0 .46.46 0 00-.6-.58zm-1.28 1.3a7.47 7.47 0 01-3.77 1.32 7.48 7.48 0 01-3.78-1.32c-.57-.4-.47-.63.22-.49a21.21 21.21 0 003.56.36 21.37 21.37 0 003.56-.36c.65-.14.75.07.18.49z" data-name="Слой 1"/>
  </g>
</svg>
