<svg xmlns="http://www.w3.org/2000/svg" viewBox="0 0 43.95 43.95">
  <defs>
    <style>
      .cls-2{fill:#fff}
    </style>
  </defs>
  <g id="Layer_2" data-name="Layer 2">
    <g id="Слой_1" data-name="Слой 1">
      <circle cx="21.98" cy="21.98" r="21.98" fill="#111110"/>
      <path d="M25.06 4.26a.08.08 0 010 .07c-5.79 4.08-8.56 10.32-9.86 14.83a36.56 36.56 0 00-1.46 8.91.07.07 0 01-.07.07.08.08 0 01-.08-.07 36.81 36.81 0 011.33-9c1.25-4.56 4-10.84 9.79-14.95a.07.07 0 01.06 0l.23.08s.05 0 .06.06m-12.73 19a.07.07 0 00.07-.07 33.76 33.76 0 012.6-9.46 23.78 23.78 0 011.37-2.58.06.06 0 000-.08.07.07 0 00-.08 0l-.29.07a.09.09 0 00-.05 0 25.89 25.89 0 00-1.37 2.6 28.1 28.1 0 00-2.16 7.84l-.11 1.6a.06.06 0 00.06.08m-.85-1.78l-.07-.07-.33-.18h-.07c.49 13.58 5.42 21.07 5.47 21.14s0 .05.06 0 0 0 0-.08a48.19 48.19 0 01-5.05-20.85" class="cls-2"/>
      <path fill="#d9c482" d="M16.54 6.38l-.73.7.11-.15.78-1zm-2.43 3.2l1.19-1.93.11-1.88-.11-.26-.16 1.56-.06.15-.74-1.57h-.07l.5 1.74-.07.19a.63.63 0 01-.17.06l-.8-.67h-.09l.72 1.41zm18.4 19.65h-4.34l-1.36-4.75H15.42c-1.11 7.19-.43 14.33 1.11 17.85 0 0-5-7.38-5.45-21.1l1 .55.28 1.41.12-1.6a28.09 28.09 0 012.15-7.82A24.92 24.92 0 0116 11.18a1.23 1.23 0 01-1.23-.25 2.08 2.08 0 012-.94 27.82 27.82 0 011.82-2.42c-5.87 10.64-5.23 18.73-5 20.5h.07s-.2-15.95 11.05-23.87l-.5-.13-.83-.21.6-.14.2-.05 2.13-.56L26 2.7l-2.93.44L22 4l-.74.57.19-.2.13-.14.11-.23.37-.39.78-.82.08-.08 3.75-.33.41.47-1.51 3.31h-.11zm-7.69-23.3l.65-.52a.57.57 0 00.27-.59 1 1 0 00.11-.24 1.74 1.74 0 00-1 1.35m1.89 18.22l-2.82-9.84 1.56-.85v-.09l-.41.07-.51.09-.26.05.46-.58.51-.65-.08-.07-.43.25-.08.05-.87.5.28-1.08H24l-.57.76-.79-2.76a11.28 11.28 0 012-3.43c-3.88 3-7 8.32-8.42 13.93h7.94z"/>
      <path d="M25 4.27l-.27-.07c-11.27 7.92-11.1 23.87-11.1 23.87s.1-15.88 11.37-23.8M14.9 13.7a22.3 22.3 0 011.37-2.59l-.29.07a24.92 24.92 0 00-1.37 2.59 28 28 0 00-2.15 7.82l-.12 1.6a33 33 0 012.56-9.49M11.41 21.41l-.33-.18c.49 13.72 5.45 21.1 5.45 21.1a47.48 47.48 0 01-5.12-20.92" class="cls-2"/>
    </g>
  </g>
</svg>
