<svg xmlns="http://www.w3.org/2000/svg" viewBox="0 0 116.16 37.99">
  <defs>
    <style>
      .cls-1{fill:#d9c482}.cls-2{fill:#fff}
    </style>
  </defs>
  <g id="Layer_2" data-name="Layer 2">
    <g id="Слой_1" data-name="Слой 1">
      <path d="M48.48 32.57a3.1 3.1 0 01-.31.76 2.13 2.13 0 01-.74.66l1.15 3.44h-3.4l-.81-3.15h-2.48l-.65 3.15h-3.18l1.88-8.89h7c1.64 0 2.29.74 2 2.22zm-3.48.58l.59-2.58a.87.87 0 00-.08-.58.58.58 0 00-.55-.25h-2.12l-.76 3.41zM51 28.54h3.14l-1.27 6.37a1.26 1.26 0 00-.08.3 1.09 1.09 0 000 .36.71.71 0 00.14.32.39.39 0 00.33.13h1.49a.75.75 0 00.61-.31 2.13 2.13 0 00.38-.8l1.4-6.37h3.19l-1.57 7a2.16 2.16 0 01-.26.64 2.61 2.61 0 01-.46.59 3.12 3.12 0 01-.59.44 1.47 1.47 0 01-.71.18H51.3a1.74 1.74 0 01-.82-.18 1.66 1.66 0 01-.57-.48 1.68 1.68 0 01-.29-.7 2.16 2.16 0 010-.84zM63 33.82a3.56 3.56 0 01-.86-.11 2.15 2.15 0 01-.73-.35 1.34 1.34 0 01-.46-.59 1.37 1.37 0 010-.88l.33-1.63a1.89 1.89 0 01.85-1.26 3.2 3.2 0 011.87-.46h6.8L70.4 30h-5.32a1.12 1.12 0 00-.59.14.82.82 0 00-.36.48l-.35 1.56H68a3 3 0 01.84.11 2.15 2.15 0 01.73.35 1.36 1.36 0 01.47.59 1.62 1.62 0 01.08.89l-.38 1.64a1.73 1.73 0 01-.27.52 2.73 2.73 0 01-.56.57 3.05 3.05 0 01-.82.45 2.86 2.86 0 01-1 .18h-7.23l.4-1.64h6.45l.29-1.32a.47.47 0 000-.52.57.57 0 00-.49-.21zM82.54 28.54l-1.83 8.89h-3.14l.75-3.61h-3.9l-.69 3.61h-3.18l1.84-8.89h3.17l-.74 3.59h3.84l.73-3.59h3.15z" class="cls-1"/>
      <path d="M41.73 12.81l.84-4.37h-9.34L30 25.55h4.24l2.92-15.4h2l-.47 2.66zM28.65 2.2l-1.16 6.24c-3.53 0-7 .47-7.91 5.59l-2.2 11.52h11.2L33 2.2zm-4.13 21.64H22l1.92-10c.39-2.18 1.22-3.72 3.25-3.72zM92.11 2.13H87.9l-.63 3.46h4.19zm8.64 6.31h-8.2l-3.27 17.11h4.36l2.93-15.4h2.72l-2.91 15.4h4.31l2.64-13.85c.28-1.95-.64-3.26-2.58-3.26M81.92 2.18L77.5 25.55h4.24l4.44-23.37zM43.66 8.44l-3.27 17.11h10.44l.4-1.71h-6.39l.46-2.38c2.11 0 6.39-.57 7.19-4.41l1.68-8.61zm4.92 8.38c-.4 2-.87 2.58-2.9 2.58l1.75-9.25h2.42zm57-8.38l-3.25 17.11h10.58l.32-1.71h-6.47l.44-2.38c2.1 0 6.36-.63 7.23-4.48l1.71-8.54zm5 8.38c-.44 2-.85 2.63-3 2.63l1.78-9.3h2.48zM86.73 8.44l-3.27 17.11h4.2l3.26-17.11zm-18.49 0l-.32 1.71h6.36l-.56 3.06c-3.5 0-6.51.55-7.5 5.67L65 25.51h-.08 10.82l3.34-17.07zm3.43 15.4h-2.56l1-5.1c.4-2.14 1.22-3.55 3.24-3.55zm-8.24-15.4h-8l-3.24 17.11h4.21l3-15.4h2.9l-3 15.4h4.16l2.67-13.89c.39-2.26-.36-3.22-2.7-3.22M18.54 0C10.24 0 2.42 6.43.27 17.54a24.64 24.64 0 00.54 9.92A21.64 21.64 0 007.12 38a25.85 25.85 0 01-2.89-10.54 33.19 33.19 0 01.29-8.12h8l-1.17 6.19H16L20.76.15C20.2.11 19.1 0 18.54 0m-5.31 15.71H5.31c.67-3.53 4.9-12 10.15-12z" class="cls-2"/>
    </g>
  </g>
</svg>
