<svg xmlns="http://www.w3.org/2000/svg" viewBox="0 0 219.05 114.89">
  <defs>
    <linearGradient id="Золото" x2="95.44" y1="57.44" y2="57.44" gradientUnits="userSpaceOnUse">
      <stop offset="0" stop-color="#9e7e39"/>
      <stop offset=".19" stop-color="#9e7e39"/>
      <stop offset=".27" stop-color="#baa058"/>
      <stop offset=".39" stop-color="#ddcb7e"/>
      <stop offset=".44" stop-color="#eadb8d"/>
      <stop offset=".51" stop-color="#dac87c"/>
      <stop offset=".64" stop-color="#b2974f"/>
      <stop offset=".7" stop-color="#9e7e39"/>
    </linearGradient>
    <style>
      .cls-1{fill:#fff}
    </style>
  </defs>
  <g id="Layer_2" data-name="Layer 2">
    <g id="Слой_1" data-name="Слой 1">
      <path d="M90.54 95.1h-5.11v-6.95h-7.52l-2.8 6.95h-5.45l14.8-34.33h5zm-5.11-11.53l.1-14.94-5.79 14.94zM102.55 95.1l2.36-11.86a26 26 0 01-3.37.29q-6.71 0-6.71-5.45a21.05 21.05 0 01.53-3.62l2.7-13.69h5.11l-2.74 13.79a12 12 0 00-.25 2.12c0 1.51.87 2.26 2.61 2.26a20.11 20.11 0 003-.24l3.62-17.93h5.11l-6.86 34.33zM131.48 95.1h-5.11v-6.95h-7.57L116 95.1h-5.4l14.8-34.33h5zm-5.11-11.53l.1-14.94-5.79 14.94zM133.12 95.1l.92-4.58h.48a4.33 4.33 0 003.71-2.17c1-1.45 1.87-4.29 2.7-8.54l3.86-19h15.53l-6.85 34.29h-5.16l5.93-29.75h-5.45L145.85 80a61.13 61.13 0 01-2 7.88 13.65 13.65 0 01-2.41 4.58 6.71 6.71 0 01-2.89 2.12 12.4 12.4 0 01-3.91.51zM177.29 95.1h-5.11v-6.95h-7.57l-2.8 6.95h-5.45l14.81-34.33h5zm-5.11-11.53l.1-14.94-5.79 14.94zM180.62 88a64.16 64.16 0 011.44-10.08 84.18 84.18 0 012.61-10.58 12.17 12.17 0 012.7-4.56 8.6 8.6 0 016.36-2.41c2.58 0 4.47.76 5.69 2.27a7.5 7.5 0 011.45 4.82 14.85 14.85 0 01-.14 2.22h-5.12a10 10 0 00.15-1.93c0-1.87-.8-2.8-2.41-2.8a3.26 3.26 0 00-2.46 1 8.28 8.28 0 00-1.71 3.31c-.47 1.49-1.14 4.38-2 8.65a62.51 62.51 0 00-1.45 10q0 2.94 2.46 2.94a3.22 3.22 0 002.65-1.25 7.92 7.92 0 001.59-3.52h5.16q-1.07 5-3.76 7.38a9 9 0 01-6.12 2q-4.2 0-5.93-2.74a8.82 8.82 0 01-1.16-4.72zM199.91 95.1l6.84-34.33h5.11l-2.65 13.35h2.7q3.72 0 5.55 1.84a6.34 6.34 0 011.59 4.67 21 21 0 01-.39 4q-1.2 6-3.56 8.25a9.22 9.22 0 01-6.56 2.22zm6-4.58h2.85a3.72 3.72 0 003-1.3 11.25 11.25 0 001.73-4.59 14.28 14.28 0 00.34-3 3.18 3.18 0 00-.65-2.2 3 3 0 00-2.24-.7h-2.7zM65.51 75.38h-6.12l-9.22 19.26-.09.46h5.12l3.03-15.19h6.42L61.61 95.1h5.11l6.85-34.33h-5.11l-2.95 14.61z" class="cls-1"/>
      <path fill="url(#Золото)" d="M23.82 21.86L17 56.2h-5.14L16 35.61 4.49 56.2H0l6.85-34.34H12L7.81 42.5l11.67-20.64zm18.86 0H29.22L22.38 56.2h5.11l5.93-29.75h8.34zM39.54 56.2l6.85-34.34h7.76q3.76 0 5.55 1.79a6.35 6.35 0 011.59 4.68 21.65 21.65 0 01-.39 4q-1.2 6-3.56 8.24a9.22 9.22 0 01-6.56 2.22h-3.47L44.65 56.2zm8.68-18H51a3.73 3.73 0 003.06-1.32 10.77 10.77 0 001.71-4.56 16.24 16.24 0 00.39-3 3 3 0 00-.68-2.19 3 3 0 00-2.26-.7h-2.64zM95.44 0L40.49 114.89h-1.88L70 49.25h-6.83l-2.8 7h-5.45l14.81-34.39h5l.51 16.42L93.56 0zM65 44.67h5.69l.1-15z"/>
    </g>
  </g>
</svg>
